<?xml version="1.0" encoding="UTF-8"?>
<svg version="1.1" xmlns="http://www.w3.org/2000/svg" width="1024" height="1024">
<path d="M0 0 C337.92 0 675.84 0 1024 0 C1024 337.92 1024 675.84 1024 1024 C686.08 1024 348.16 1024 0 1024 C0 686.08 0 348.16 0 0 Z " fill="#111111" transform="translate(0,0)"/>
<path d="M0 0 C2.66743196 1.91122064 5.25958365 3.88501586 7.83203125 5.921875 C8.66992188 6.56898437 9.5078125 7.21609375 10.37109375 7.8828125 C24.32616583 18.81356556 36.80120892 31.0545555 47.83203125 44.921875 C48.59515625 45.829375 49.35828125 46.736875 50.14453125 47.671875 C54.52612785 52.88242231 58.41433676 58.14654636 61.97265625 63.94921875 C63.66771229 66.65917179 65.45176166 69.28789206 67.27075195 71.91552734 C85.70206612 98.76074544 98.86606459 129.32513481 110.54394531 159.60546875 C111.7261414 162.64924275 112.93820783 165.67831843 114.16796875 168.703125 C114.50771729 169.54657471 114.84746582 170.39002441 115.19750977 171.2590332 C115.80650315 172.77044835 116.42112279 174.27961517 117.04272461 175.78588867 C118.94530317 180.58205924 118.94530317 180.58205924 117.83203125 183.921875 C117.12820313 182.86871094 116.424375 181.81554687 115.69921875 180.73046875 C109.03529935 170.92971214 101.87871454 162.13008836 93.56689453 153.6875 C91.87734415 151.96799136 90.21071344 150.22872982 88.546875 148.484375 C57.45397678 116.22296052 7.416383 88.02969087 -38.00341797 86.45092773 C-70.12263942 86.10071815 -102.10130727 100.67417778 -129.16796875 116.921875 C-130.65876953 117.81519531 -130.65876953 117.81519531 -132.1796875 118.7265625 C-158.58209107 135.07270109 -182.64152896 157.56324951 -199.16796875 183.921875 C-200.16796875 181.921875 -200.16796875 181.921875 -199.17089844 178.67919922 C-198.65228338 177.2751877 -198.12453164 175.87453202 -197.58984375 174.4765625 C-197.30753403 173.72294434 -197.0252243 172.96932617 -196.73435974 172.19287109 C-195.80495936 169.72386449 -194.8625711 167.26010248 -193.91796875 164.796875 C-193.43911728 163.53886078 -193.43911728 163.53886078 -192.95059204 162.25543213 C-187.92729239 149.07858768 -182.51724829 136.1876818 -176.39111328 123.47998047 C-175.21297479 121.01600141 -174.07301023 118.53818625 -172.9453125 116.05078125 C-161.38979444 90.71974529 -146.79626782 66.50470561 -129.16796875 44.921875 C-128.50063721 44.10227295 -128.50063721 44.10227295 -127.81982422 43.26611328 C-116.48159552 29.43103255 -104.14103181 16.75965647 -89.74658203 6.09912109 C-88.29566516 5.01710421 -86.8691474 3.90257044 -85.4453125 2.78515625 C-56.3999444 -19.51362559 -30.2135627 -19.81950106 0 0 Z " fill="#121211" transform="translate(552.16796875,121.078125)"/>
<path d="M0 0 C10.95456412 7.7808119 20.96613759 16.40226128 30.43774414 25.93066406 C30.91675171 26.41116211 31.39575928 26.89166016 31.88928223 27.38671875 C39.37963632 34.91887657 46.25056173 42.61062165 52.43774414 51.24316406 C53.25279599 52.34182638 54.06922581 53.43946765 54.88696289 54.53613281 C82.29278379 91.6659051 101.02085707 134.06574832 115.75024414 177.55566406 C116.13312592 178.67488251 116.13312592 178.67488251 116.52374268 179.81671143 C121.61717303 194.76647971 126.24066932 209.86653127 125.93774414 225.80566406 C125.92565918 226.86575684 125.91357422 227.92584961 125.90112305 229.01806641 C125.53301866 243.73554909 121.61137994 256.91755674 115.43774414 270.24316406 C115.12740234 270.9131543 114.81706055 271.58314453 114.49731445 272.2734375 C106.47981465 289.1869588 94.63027258 303.19610864 82.43774414 317.24316406 C81.82672852 317.95472656 81.21571289 318.66628906 80.58618164 319.39941406 C78.88758931 321.36366301 77.16705182 323.30590166 75.43774414 325.24316406 C74.2427832 326.59474609 74.2427832 326.59474609 73.02368164 327.97363281 C63.06555738 339.12160648 52.11712418 348.9246761 40.43774414 358.24316406 C39.30805206 359.16407591 38.17918882 360.08600517 37.05102539 361.00878906 C28.19214329 368.22217687 19.06053259 374.98930374 9.74584961 381.60107422 C7.38781492 383.27868595 5.03924527 384.96895046 2.69165039 386.66113281 C1.16981854 387.75140041 -0.35230617 388.84125937 -1.87475586 389.93066406 C-2.57391113 390.43597656 -3.27306641 390.94128906 -3.9934082 391.46191406 C-7.41033611 393.89098595 -10.54020918 395.91285462 -14.56225586 397.24316406 C-8.60910212 390.03671479 -2.16625908 383.30503787 4.94775391 377.2331543 C10.20393788 372.64458445 15.10985621 367.71572187 20.03540039 362.77832031 C21.03838317 361.77601326 22.04151417 360.7738545 23.04478455 359.77183533 C25.13483552 357.68324872 27.22309302 355.59289018 29.31005859 353.5012207 C31.96472284 350.84085997 34.62385298 348.18501564 37.28435612 345.53049564 C39.35299363 343.465498 41.41921113 341.39809203 43.4847393 339.32998466 C44.46346419 338.35059995 45.44291221 337.37193725 46.42314339 336.39406013 C51.97956419 330.84806266 57.35429863 325.22628394 62.43774414 319.24316406 C63.33817832 318.21008218 64.23919257 317.17750551 65.14086914 316.14550781 C85.96812341 291.9002839 106.05841776 262.626809 104.60375977 229.37646484 C103.35666427 213.35128767 92.15597968 198.38668861 82.43774414 186.24316406 C81.77645508 185.37820313 81.11516602 184.51324219 80.43383789 183.62207031 C52.2693682 147.65492021 6.66840244 118.3634493 -38.56225586 110.24316406 C-42.96880418 109.83619924 -47.32638426 109.76483789 -51.74975586 109.80566406 C-52.92666992 109.8139624 -54.10358398 109.82226074 -55.31616211 109.83081055 C-77.99940731 110.26666886 -98.79697253 118.57254579 -118.56225586 129.24316406 C-119.24980957 129.61231934 -119.93736328 129.98147461 -120.64575195 130.36181641 C-128.96606466 134.85705113 -136.99291995 139.54610205 -144.56225586 145.24316406 C-145.27124023 145.77167969 -145.98022461 146.30019531 -146.71069336 146.84472656 C-149.02567209 148.60812191 -151.29794327 150.41512826 -153.56225586 152.24316406 C-154.99311523 153.39365234 -154.99311523 153.39365234 -156.45288086 154.56738281 C-177.729515 171.96341492 -203.47479098 197.18385913 -209.56225586 225.24316406 C-210.73773723 243.8196237 -206.47395589 258.60422147 -198.56225586 275.24316406 C-197.92803711 276.63148438 -197.92803711 276.63148438 -197.28100586 278.04785156 C-191.99970844 289.21708192 -184.53381136 298.88034652 -176.56225586 308.24316406 C-176.09239258 308.79794434 -175.6225293 309.35272461 -175.13842773 309.92431641 C-165.75223976 321.00234335 -156.25570403 331.89164692 -145.74975586 341.93066406 C-143.79075246 344.00161051 -142.62818801 345.62678516 -141.56225586 348.24316406 C-140.90225586 348.24316406 -140.24225586 348.24316406 -139.56225586 348.24316406 C-137.83374673 349.87056696 -136.19888738 351.52674353 -134.56225586 353.24316406 C-133.43863203 354.37692925 -132.31240457 355.5081179 -131.18408203 356.63720703 C-130.56961716 357.2548996 -129.95515228 357.87259216 -129.32206726 358.50900269 C-126.53411665 361.31042814 -123.74343353 364.10912512 -120.95263672 366.90771484 C-119.48851589 368.3768659 -118.02529365 369.84691303 -116.56298828 371.31787109 C-114.43364597 373.45944963 -112.3009957 375.59768739 -110.16772461 377.73535156 C-109.52473923 378.38349823 -108.88175385 379.0316449 -108.21928406 379.69943237 C-104.41217318 383.50700414 -100.49621552 387.11131667 -96.38667297 390.59133911 C-93.4693839 393.23264896 -91.0484284 396.1976027 -88.56225586 399.24316406 C-92.5415599 397.44798931 -96.04801749 394.96727245 -99.62475586 392.49316406 C-100.31939941 392.01363281 -101.01404297 391.53410156 -101.72973633 391.04003906 C-120.03568059 378.31957791 -137.6673824 364.78008093 -154.56225586 350.24316406 C-155.61799805 349.34017578 -155.61799805 349.34017578 -156.69506836 348.41894531 C-158.66919052 346.71327072 -160.61898718 344.98393491 -162.56225586 343.24316406 C-163.52518555 342.38464844 -164.48811523 341.52613281 -165.48022461 340.64160156 C-177.59725086 329.72375197 -188.38202322 317.92686008 -198.25366211 304.95019531 C-199.54743464 303.26249801 -200.86317791 301.59465456 -202.18725586 299.93066406 C-222.63381154 274.11340758 -235.04158413 243.89278076 -231.26049805 210.58496094 C-227.07981898 183.88255913 -215.45618552 156.78614966 -204.56225586 132.24316406 C-204.12558594 131.24784668 -203.68891602 130.2525293 -203.23901367 129.22705078 C-186.40199781 90.97708422 -164.66174287 55.36398434 -135.56225586 25.24316406 C-135.06161621 24.72061035 -134.56097656 24.19805664 -134.04516602 23.65966797 C-123.01446675 12.17766153 -110.78079428 3.00629866 -97.56225586 -5.75683594 C-96.68827148 -6.3459375 -95.81428711 -6.93503906 -94.91381836 -7.54199219 C-61.99333676 -28.60885328 -30.59210265 -21.2963856 0 0 Z M-141.56225586 51.24316406 C-142.21709961 52.03078125 -142.87194336 52.81839844 -143.54663086 53.62988281 C-148.97077341 60.1930953 -153.67928891 67.14783572 -158.29760742 74.28857422 C-159.11300968 75.5488272 -159.93238207 76.8065246 -160.7565918 78.06103516 C-179.39384333 106.46693768 -193.33361532 137.49675125 -205.38745117 169.16503906 C-206.44926265 171.94710871 -207.52877909 174.72132275 -208.61694336 177.49316406 C-209.18268026 178.95125206 -209.74784485 180.40956232 -210.31225586 181.86816406 C-210.78147461 183.07730469 -211.25069336 184.28644531 -211.73413086 185.53222656 C-212.882412 188.17702558 -212.882412 188.17702558 -211.56225586 190.24316406 C-211.05178711 189.46714844 -210.54131836 188.69113281 -210.01538086 187.89160156 C-197.40382441 169.15315422 -181.65500441 151.82553904 -163.56225586 138.24316406 C-162.77866699 137.65293457 -162.77866699 137.65293457 -161.97924805 137.05078125 C-153.20659667 130.48791727 -144.09025179 124.64441486 -134.56225586 119.24316406 C-133.57467285 118.68048828 -133.57467285 118.68048828 -132.56713867 118.10644531 C-121.30333778 111.75055959 -109.68980116 106.7146123 -97.56225586 102.24316406 C-96.77641113 101.95280273 -95.99056641 101.66244141 -95.1809082 101.36328125 C-56.93469477 87.43950756 -23.3157289 94.21081652 12.8269043 111.05175781 C31.03556656 119.7250884 48.16398191 129.99960825 63.43774414 143.24316406 C64.61143555 144.25056641 64.61143555 144.25056641 65.80883789 145.27832031 C81.0041459 158.62723622 94.66107345 173.05505637 105.43774414 190.24316406 C106.54979409 186.9070142 106.40605799 186.47009835 105.18115234 183.36791992 C104.87899811 182.59022751 104.57684387 181.8125351 104.26553345 181.01127625 C103.92662079 180.16869766 103.58770813 179.32611908 103.23852539 178.45800781 C102.89236176 177.57800613 102.54619812 176.69800446 102.18954468 175.79133606 C101.05403419 172.91663655 99.90330982 170.04836323 98.75024414 167.18066406 C98.36059479 166.20432007 97.97094543 165.22797607 97.56948853 164.2220459 C83.5730502 129.17058489 67.60282613 94.94855543 45.43774414 64.24316406 C44.32786133 62.70208984 44.32786133 62.70208984 43.19555664 61.12988281 C38.92342263 55.31298063 34.43564506 49.83727349 29.54321289 44.53222656 C27.68690502 42.5140514 25.90052606 40.45723673 24.12524414 38.36816406 C15.15422144 28.14202121 5.4195037 19.25217312 -5.56225586 11.24316406 C-6.1590918 10.8072998 -6.75592773 10.37143555 -7.37084961 9.92236328 C-60.07013228 -28.02962013 -105.70588666 5.8914971 -141.56225586 51.24316406 Z " fill="#00F95C" transform="translate(564.562255859375,114.7568359375)"/>
<path d="M0 0 C11.22 0 22.44 0 34 0 C35.16917969 5.17042969 36.33835937 10.34085938 37.54296875 15.66796875 C38.29479257 18.99026376 39.04668684 22.31254252 39.79882812 25.63476562 C40.98643142 30.88046328 42.17380689 36.12621159 43.35961914 41.37231445 C48.59829346 64.60395515 48.59829346 64.60395515 53.98828125 87.80078125 C54.18455612 88.63675339 54.38083099 89.47272552 54.58305359 90.33403015 C55.49376062 94.26950919 55.49376062 94.26950919 57 98 C59.00653309 89.2895542 61.01068371 80.57856162 63.01324844 71.86720276 C63.49750659 69.76084549 63.98194822 67.65453048 64.46640015 65.54821777 C69.13089263 45.27201693 69.13089263 45.27201693 73.67578125 24.96875 C73.86546478 24.10928772 74.05514832 23.24982544 74.25057983 22.36431885 C75.09951625 18.50960404 75.94214845 14.65361294 76.77734375 10.79589844 C77.06640247 9.47330647 77.35546471 8.15071526 77.64453125 6.828125 C77.88534424 5.7134082 78.12615723 4.59869141 78.37426758 3.45019531 C79 1 79 1 80 0 C91.22 0 102.44 0 114 0 C114 52.47 114 104.94 114 159 C106.08 159 98.16 159 90 159 C89.67 124.35 89.34 89.7 89 54 C86.2775 64.725 83.555 75.45 80.75 86.5 C79.89889648 89.85220703 79.04779297 93.20441406 78.17089844 96.65820312 C77.3898854 99.7355251 77.3898854 99.7355251 76.60894775 102.81286621 C76.26839503 104.1546897 75.92773296 105.49648543 75.5869751 106.83825684 C73.03521742 116.88655874 70.50979707 126.94112703 68 137 C60.41 137 52.82 137 45 137 C44.57178955 135.22657227 44.1435791 133.45314453 43.70239258 131.62597656 C42.26618492 125.67877641 40.82922668 119.73175797 39.39178944 113.78485489 C38.52274131 110.18935219 37.65396817 106.59378357 36.78588867 102.99804688 C35.94366793 99.50947078 35.10063988 96.02109058 34.25711632 92.53282928 C33.78870538 90.59495094 33.32107103 88.65688493 32.85346985 86.71881104 C30.29195418 76.13078292 27.64232169 65.56928676 25 55 C24.67 89.32 24.34 123.64 24 159 C16.08 159 8.16 159 0 159 C0 106.53 0 54.06 0 0 Z " fill="#00FA5B" transform="translate(719,567)"/>
<path d="M0 0 C1.10923828 0.00829834 2.21847656 0.01659668 3.36132812 0.02514648 C15.42571095 0.27485859 24.91899534 2.58217846 33.6875 11.4375 C40.30337895 19.60419788 41.98746099 26.73955825 41.97802734 37.07348633 C41.98474457 38.13279861 41.99146179 39.1921109 41.99838257 40.28352356 C42.01735104 43.77890742 42.02128625 47.27409914 42.0234375 50.76953125 C42.0298663 53.20562315 42.03659473 55.64171428 42.04360962 58.07780457 C42.05557958 63.18282867 42.05929073 68.28778512 42.05810547 73.39282227 C42.05790232 79.92290551 42.08520207 86.45255335 42.11964989 92.98253345 C42.14192626 98.01411416 42.14594277 103.04559023 42.14488602 108.07721519 C42.14724094 110.4840819 42.15605829 112.89095155 42.17155075 115.29776955 C42.19122437 118.66993006 42.18536641 122.04115333 42.17333984 125.41333008 C42.18457886 126.40012756 42.19581787 127.38692505 42.20739746 128.40362549 C42.12017847 138.06498698 38.4972801 146.51081381 31.6875 153.4375 C22.20863763 160.68604181 12.06175895 162.99949156 0.3125 162.875 C-1.2036792 162.86255249 -1.2036792 162.86255249 -2.75048828 162.84985352 C-14.47391061 162.58448525 -23.87884337 159.93795787 -32.3125 151.4375 C-39.2064216 143.06101462 -40.61291986 135.4635367 -40.60302734 124.88745117 C-40.60974457 123.84910629 -40.61646179 122.81076141 -40.62338257 121.74095154 C-40.64232376 118.32074144 -40.64628483 114.90072798 -40.6484375 111.48046875 C-40.65486806 109.0930422 -40.66159662 106.70561644 -40.66860962 104.31819153 C-40.68057266 99.31749648 -40.68429143 94.31687046 -40.68310547 89.31616211 C-40.68290233 82.92408565 -40.71020428 76.53245401 -40.74464989 70.1404829 C-40.76694146 65.21008796 -40.77094231 60.27979969 -40.76988602 55.34935951 C-40.77223857 52.99355855 -40.78104246 50.63775449 -40.79655075 48.2820034 C-40.81625587 44.97960058 -40.81035426 41.67815225 -40.79833984 38.37573242 C-40.80957886 37.41280273 -40.82081787 36.44987305 -40.83239746 35.45776367 C-40.74102002 25.51983634 -37.27332229 16.6303497 -30.3125 9.4375 C-21.08024051 1.75556333 -11.7900902 -0.11281958 0 0 Z " fill="#00FC5C" transform="translate(442.3125,565.5625)"/>
<path d="M0 0 C8.91 0 17.82 0 27 0 C35.46301706 24.62464964 43.79531168 49.2881308 52 74 C54.64 81.92 57.28 89.84 60 98 C60.33 65.66 60.66 33.32 61 0 C69.25 0 77.5 0 86 0 C86 52.8 86 105.6 86 160 C77.09 160 68.18 160 59 160 C51.90919735 140.30332597 45.00140005 120.54843951 38.15454102 100.76586914 C37.80115662 99.74497696 37.44777222 98.72408478 37.0836792 97.67225647 C36.43186666 95.78871929 35.78041034 93.90505877 35.12945557 92.02122498 C31.77989027 82.3378914 28.38496089 72.67131682 25 63 C24.67 94.68 24.34 126.36 24 159 C16.08 159 8.16 159 0 159 C0 106.53 0 54.06 0 0 Z " fill="#00FC5B" transform="translate(293,567)"/>
<path d="M0 0 C8.91 0 17.82 0 27 0 C35.78531757 25.62817491 44.46468593 51.28751433 53 77 C55.31 83.93 57.62 90.86 60 98 C60.33 65.66 60.66 33.32 61 0 C68.92 0 76.84 0 85 0 C85 52.47 85 104.94 85 159 C76.09 159 67.18 159 58 159 C53.24851422 146.06539983 48.6231197 133.10090335 44.1550293 120.06591797 C41.55857502 112.4992212 38.93500158 104.94271229 36.28515625 97.39453125 C35.96683838 96.48745422 35.64852051 95.5803772 35.32055664 94.64581299 C34.04424197 91.00996365 32.76747811 87.37427838 31.48724365 83.73980713 C30.59287392 81.20075591 29.70059495 78.66097784 28.80859375 76.12109375 C28.53926529 75.35883987 28.26993683 74.596586 27.9924469 73.81123352 C26.84951875 70.55242929 25.83857395 67.3542958 25 64 C24.67 95.35 24.34 126.7 24 159 C16.08 159 8.16 159 0 159 C0 106.53 0 54.06 0 0 Z " fill="#00FC5C" transform="translate(508,567)"/>
<path d="M0 0 C10.23 0 20.46 0 31 0 C41.72709307 53.10305446 41.72709307 53.10305446 46.375 78.3125 C46.53779449 79.19528625 46.70058899 80.07807251 46.86831665 80.98760986 C47.49389344 84.38265622 48.11872686 87.7778379 48.74232483 91.17324829 C50.03047303 98.1832005 51.3452011 105.18768355 52.6875 112.1875 C52.87973145 113.19087402 53.07196289 114.19424805 53.27001953 115.22802734 C54.25848653 120.33468335 55.29409175 125.42853099 56.37890625 130.515625 C56.60811768 131.59303955 56.8373291 132.6704541 57.07348633 133.78051758 C57.5056805 135.79737174 57.94373832 137.81298416 58.3894043 139.8269043 C59.78654902 146.31499903 60.38968051 152.28648559 61 159 C53.08 159 45.16 159 37 159 C36.1622993 154.58412061 35.32966212 150.16739023 34.5 145.75 C34.26152344 144.49574219 34.02304688 143.24148438 33.77734375 141.94921875 C33.55175781 140.74394531 33.32617188 139.53867187 33.09375 138.296875 C32.77954102 136.63156738 32.77954102 136.63156738 32.45898438 134.93261719 C32 132 32 132 32 128 C20.78 128 9.56 128 -2 128 C-2.33 131.63 -2.66 135.26 -3 139 C-3.28410801 140.82311056 -3.59682135 142.64278647 -3.97265625 144.44921875 C-4.21254272 145.6261731 -4.21254272 145.6261731 -4.45727539 146.8269043 C-4.65699951 147.77090088 -4.85672363 148.71489746 -5.0625 149.6875 C-6.0215625 154.2971875 -6.0215625 154.2971875 -7 159 C-14.92 159 -22.84 159 -31 159 C-29.71366627 150.18830322 -28.15890107 141.46975047 -26.37200928 132.74798584 C-23.24732098 117.48094933 -20.29166538 102.18293974 -17.375 86.875 C-14.32761231 70.90049534 -11.25819741 54.93311226 -8 39 C-7.7683313 37.866763 -7.7683313 37.866763 -7.53198242 36.71063232 C-5.02957521 24.4720558 -2.51706706 12.23556916 0 0 Z " fill="#00FB5B" transform="translate(212,567)"/>
<path d="M0 0 C8.58 0 17.16 0 26 0 C29.74368134 11.08977302 33.45002719 22.18140887 36.9453125 33.3515625 C37.31764259 34.54137978 37.31764259 34.54137978 37.69749451 35.75523376 C38.9391404 39.72872783 40.17499096 43.70395739 41.40551758 47.6809082 C41.86276975 49.15056061 42.3200441 50.62020612 42.77734375 52.08984375 C42.98743073 52.77418488 43.1975177 53.458526 43.41397095 54.16360474 C44.23353482 57.33937328 44.23353482 57.33937328 46 60 C46.196008 59.32205887 46.39201599 58.64411774 46.59396362 57.94563293 C48.44503977 51.54492989 50.29855876 45.14493991 52.15479851 38.74573231 C53.1089351 35.45611886 54.06213767 32.16624085 55.01318359 28.87573242 C56.1075471 25.08951707 57.20601309 21.30449803 58.3046875 17.51953125 C58.6443454 16.34227982 58.9840033 15.16502838 59.33395386 13.95210266 C59.65413483 12.85133896 59.9743158 11.75057526 60.30419922 10.61645508 C60.58399628 9.65048904 60.86379333 8.68452301 61.15206909 7.68928528 C61.97397494 5.0825407 62.98489705 2.53775738 64 0 C72.25 0 80.5 0 89 0 C87.90241945 3.43514233 86.80417415 6.86967347 85.6965332 10.30151367 C84.65884116 13.52133752 83.63841005 16.74610591 82.62573242 19.97387695 C79.79849582 28.89489032 76.79423771 37.67678789 73.30691528 46.36386108 C57.80138628 85.05428829 55.51669807 117.82869764 57 159 C48.75 159 40.5 159 32 159 C32.02731201 157.173479 32.05462402 155.34695801 32.08276367 153.46508789 C33.42995334 107.70092018 33.42995334 107.70092018 21.70019531 64.03808594 C18.49318355 56.64866436 16.13528155 48.90967606 13.59384155 41.27322388 C12.17477883 37.02903228 10.71628606 32.79852834 9.26171875 28.56640625 C7.01375883 21.99805219 4.78618691 15.42303001 2.58203125 8.83984375 C2.32161545 8.06508194 2.06119965 7.29032013 1.79289246 6.49208069 C0 1.11799156 0 1.11799156 0 0 Z " fill="#00FA5B" transform="translate(611,567)"/>
<path d="M0 0 C3.48715362 2.68242586 6.03175851 5.5303747 6.80550957 10.00158691 C6.95022848 12.55592452 6.96656724 15.08228615 6.93920898 17.640625 C6.94461197 18.60722046 6.95001495 19.57381592 6.95558167 20.56970215 C6.96805775 23.75511582 6.95158486 26.93962372 6.93359375 30.125 C6.93374876 32.344076 6.93523813 34.56315228 6.93800354 36.78222656 C6.93938704 41.42915846 6.92683733 46.07578153 6.90405273 50.72265625 C6.87566859 56.6745765 6.87840625 62.62598369 6.89114285 68.57794189 C6.89810289 73.15906138 6.89030694 77.74006261 6.87788582 82.32116699 C6.87337451 84.51557969 6.87303171 86.71000511 6.87695122 88.90441895 C6.87986656 91.97300168 6.86334038 95.0408812 6.84155273 98.109375 C6.84605438 99.01345093 6.85055603 99.91752686 6.85519409 100.84899902 C6.79545679 105.92123384 6.30819013 109.50718191 3.4375 113.875 C-0.88131951 116.78284154 -4.4155858 117.28386128 -9.5625 117.25 C-10.738125 117.25773438 -11.91375 117.26546875 -13.125 117.2734375 C-17.73618993 116.73895867 -21.18121576 115.35154523 -24.375 111.9375 C-26.27287244 108.64119524 -26.6864856 105.56776057 -26.70967102 101.80328369 C-26.71682632 101.00158752 -26.72398163 100.19989136 -26.73135376 99.37390137 C-26.73404266 98.50317993 -26.73673157 97.6324585 -26.73950195 96.73535156 C-26.74607315 95.81127502 -26.75264435 94.88719849 -26.75941467 93.93511963 C-26.77911645 90.87862056 -26.79080326 87.82217055 -26.80078125 84.765625 C-26.80485678 83.72015251 -26.8089323 82.67468002 -26.81313133 81.59752655 C-26.83397861 76.06404316 -26.84828624 70.53058446 -26.85766602 64.99707031 C-26.86872848 59.28965074 -26.90313064 53.58262124 -26.94283772 47.87533951 C-26.96901422 43.47946459 -26.97735878 39.08368251 -26.98094749 34.68773651 C-26.98581062 32.5842602 -26.99741675 30.48078797 -27.01598549 28.377388 C-27.04039885 25.42868843 -27.03940775 22.48099679 -27.0324707 19.53222656 C-27.04528076 18.66960205 -27.05809082 17.80697754 -27.07128906 16.91821289 C-27.02191742 11.13782838 -25.85201168 6.6923544 -22.5625 1.875 C-16.62234043 -2.99897709 -6.98390094 -2.2054424 0 0 Z " fill="#121310" transform="translate(452.5625,589.125)"/>
<path d="M0 0 C0.66 0 1.32 0 2 0 C2.08821107 3.95818926 2.14079412 7.91612062 2.1875 11.875 C2.21263672 12.98359375 2.23777344 14.0921875 2.26367188 15.234375 C2.35555227 25.6474864 0.72620187 33.43344251 -5.625 41.75 C-8.7947877 45.91483432 -10.54324424 48.73943366 -11 54 C-10.35933594 54.23074219 -9.71867187 54.46148437 -9.05859375 54.69921875 C-4.72412115 56.33352809 -0.99751806 57.80663569 2.5625 60.8125 C5.30009476 62.89307202 7.05979987 63.33964992 10.5 63.125 C14.54662855 62.41290293 17.07406371 60.83042376 20.2265625 58.27734375 C23.22155274 56.12015915 26.5162478 55.16125073 30 54 C30.72961705 47.99469042 28.39211677 44.85016888 25.125 40.125 C19.20875058 31.52406597 17.65667986 24.70324321 17.8125 14.3125 C17.8134668 13.07016602 17.8134668 13.07016602 17.81445312 11.80273438 C17.84369213 7.74500991 17.99249056 3.95749708 19 0 C19.33 0 19.66 0 20 0 C20.12004395 0.69448242 20.24008789 1.38896484 20.36376953 2.10449219 C23.31410182 18.82951793 25.9468003 31.7963432 37.36328125 44.84375 C39.03754483 47.0494624 39.77018555 48.25826016 40 51 C38.816088 55.43582613 37.10189545 59.11848364 33.5 62 C31.32890747 62.86843701 29.29762075 63.57451468 27 64 C27.45806318 68.92417923 28.80297777 71.28732902 32 75 C32 75.66 32 76.32 32 77 C39.30331614 81.56457258 50.78788053 80.73544943 58.9375 79.3125 C65.00979112 76.71008952 67.67929017 70.44227445 71 65 C74.63 65.33 78.26 65.66 82 66 C80.54586481 71.05038352 78.33659516 75.17656611 75.625 79.625 C75.04492188 80.60726562 75.04492188 80.60726562 74.453125 81.609375 C70.1609787 88.7245437 70.1609787 88.7245437 67 91 C64.25105554 91.47124762 61.88447848 91.70098671 59.125 91.75 C58.34632568 91.77022217 57.56765137 91.79044434 56.76538086 91.8112793 C55.07566815 91.85202933 53.38577738 91.88584879 51.69580078 91.91357422 C48.88623689 92.00364718 46.10880312 92.22959408 43.30859375 92.47265625 C28.29213706 93.51525357 28.29213706 93.51525357 23.30078125 89.5703125 C18.46003264 84.80595254 15.2776085 78.88041526 12 73 C9.35242079 73.36835885 8.21410476 73.77162158 6.359375 75.75 C5.82828125 76.4925 5.2971875 77.235 4.75 78 C3.53110943 79.68955129 2.27332746 81.35108674 1 83 C0.56260498 83.75627686 0.12520996 84.51255371 -0.32543945 85.29174805 C-2.66141751 88.7292884 -4.79336283 91.44693173 -8.98345947 92.49713135 C-13.97831458 93.14548297 -18.96624616 93.06369124 -23.99145508 92.89868164 C-26.69196288 92.81235734 -29.38612581 92.79616839 -32.08789062 92.79101562 C-33.81256149 92.76710704 -35.53718309 92.73924884 -37.26171875 92.70703125 C-38.06389328 92.6994429 -38.86606781 92.69185455 -39.69255066 92.68403625 C-44.69057847 92.49363488 -47.40387326 91.7648995 -51 88 C-52.66918945 85.74169922 -52.66918945 85.74169922 -54.11328125 83.3046875 C-54.63857422 82.42425781 -55.16386719 81.54382813 -55.70507812 80.63671875 C-56.23552734 79.72535156 -56.76597656 78.81398438 -57.3125 77.875 C-58.13717773 76.49634766 -58.13717773 76.49634766 -58.97851562 75.08984375 C-63 68.28579193 -63 68.28579193 -63 66 C-57.06 65.505 -57.06 65.505 -51 65 C-50.5875 65.83144531 -50.175 66.66289062 -49.75 67.51953125 C-46.32995493 74.58712068 -46.32995493 74.58712068 -40.375 79.25 C-32.61087781 81.14957164 -23.43090722 81.07236308 -15.9375 78.1796875 C-10.89086879 75.10694027 -7.73013548 69.53643352 -6 64 C-7.2375 63.773125 -8.475 63.54625 -9.75 63.3125 C-13.96256885 62.25563644 -15.70945137 60.78821504 -18 57 C-19.99862615 53.19309304 -20.24326842 51.10218519 -19 47 C-17.109375 44.45703125 -17.109375 44.45703125 -14.75 41.8125 C-4.43655402 29.47232295 -2.08668881 15.58756541 0 0 Z " fill="#01F85D" transform="translate(502,308)"/>
<path d="M0 0 C6.0818832 0.24264914 10.9838366 2.50968773 16.4375 5.0625 C17.31712402 5.46734619 18.19674805 5.87219238 19.10302734 6.28930664 C27.15724161 10.02048517 35.13945857 13.87585099 43 18 C43.72960937 18.38269043 44.45921875 18.76538086 45.2109375 19.15966797 C74.99734474 34.92333613 92.14201963 52.09736434 103.625 84.125 C104.09322902 85.41815751 104.56197793 86.71112689 105.03125 88.00390625 C105.93669581 90.50020805 106.83730699 92.99807711 107.73535156 95.49707031 C108.55616191 97.7706199 109.38573783 100.0410311 110.22558594 102.30761719 C110.59200195 103.29665039 110.95841797 104.28568359 111.3359375 105.3046875 C111.65868652 106.16819824 111.98143555 107.03170898 112.31396484 107.92138672 C113 110 113 110 113 112 C108.38 112 103.76 112 99 112 C98.63390625 110.95328125 98.2678125 109.9065625 97.890625 108.828125 C94.45870198 99.18346316 90.73855729 89.66100073 86.77380371 80.22302246 C86.01649412 78.41439178 85.27225473 76.60030599 84.52832031 74.78613281 C81.50534915 67.67077163 78.10893441 61.8059924 73 56 C72.4632666 55.37770508 71.9265332 54.75541016 71.37353516 54.11425781 C60.12531238 41.47004683 41.76105323 34.4773774 27 27 C26.21238281 26.59861816 25.42476562 26.19723633 24.61328125 25.78369141 C13.8485733 20.29936122 2.93497037 15.13468174 -8 10 C-7.04367001 8.70684939 -6.08486149 7.41553147 -5.125 6.125 C-4.59132813 5.40570313 -4.05765625 4.68640625 -3.5078125 3.9453125 C-2 2 -2 2 0 0 Z " fill="#00F95C" transform="translate(675,420)"/>
<path d="M0 0 C1.80078125 2.06640625 1.80078125 2.06640625 3.3125 4.5625 C3.82425781 5.38878906 4.33601563 6.21507812 4.86328125 7.06640625 C5.23839844 7.70449219 5.61351562 8.34257812 6 9 C4.82566406 9.54527344 3.65132813 10.09054687 2.44140625 10.65234375 C-6.42048624 14.79345835 -15.17453422 19.06104371 -23.79052734 23.69311523 C-28.50428961 26.22380604 -33.26228919 28.63802876 -38.0625 31 C-62.97923807 43.38148451 -78.25580205 55.74781255 -89 82 C-89.35658691 82.8652832 -89.71317383 83.73056641 -90.08056641 84.62207031 C-93.65945324 93.33713045 -97.08976287 102.03646963 -100 111 C-104.95 111 -109.9 111 -115 111 C-110.60401603 97.83328473 -106.08095732 84.75935402 -100.75 71.9375 C-100.35055176 70.97070312 -99.95110352 70.00390625 -99.53955078 69.0078125 C-89.02362553 44.12113793 -72.45277386 32.7851241 -49.15625 20.64794922 C-46.08437534 19.04405426 -43.02533392 17.41796818 -39.96875 15.78515625 C-31.0419487 11.03677894 -22.06469677 6.40884513 -12.875 2.1875 C-12.14684082 1.84356201 -11.41868164 1.49962402 -10.66845703 1.14526367 C-6.79157275 -0.58369198 -4.00691487 -1.78085105 0 0 Z " fill="#00F85C" transform="translate(350,421)"/>
<path d="M0 0 C2.64 0 5.28 0 8 0 C8.57545677 23.13631341 6.1978988 45.1877171 1.45556641 67.81884766 C1.06209303 69.70271216 0.69103992 71.59123372 0.32421875 73.48046875 C-4.05373999 93.81246119 -18.5429029 110.47136392 -32.01953125 125.62109375 C-34.5880782 128.50858412 -37.02885887 131.47695503 -39.4375 134.5 C-45.2519564 141.67187545 -51.61934046 148.33422337 -58 155 C-58.49242187 155.51578613 -58.98484375 156.03157227 -59.4921875 156.56298828 C-64.3477238 161.62255312 -69.11814846 166.16400987 -75 170 C-75.66 169.67 -76.32 169.34 -77 169 C-76.57332031 168.47535156 -76.14664063 167.95070313 -75.70703125 167.41015625 C-71.31421228 161.96668367 -67.04212787 156.44565236 -62.8125 150.875 C-58.41002217 145.08358408 -53.92074404 139.37903598 -49.3125 133.75 C-43.73569649 126.93418456 -38.28852957 120.04199594 -33 113 C-32.37609375 112.18660156 -31.7521875 111.37320313 -31.109375 110.53515625 C-18.19197862 93.05012196 -12.15233445 71.83335236 -7 51 C-7.51949219 51.27714844 -8.03898438 51.55429687 -8.57421875 51.83984375 C-19.21672627 57.36765265 -28.18812019 56.7141179 -39.53515625 53.2890625 C-44.43977414 51.46434559 -48.70645233 48.9678901 -53 46 C-52.01 45.505 -52.01 45.505 -51 45 C-49.824375 45.474375 -48.64875 45.94875 -47.4375 46.4375 C-38.97999571 49.39352092 -28.02653506 49.51330362 -19.5625 46.5 C-13.79946127 43.67768994 -6.81107159 40.03704853 -4.09204102 33.97607422 C-1.72933802 26.92029166 -1.26114707 19.75915457 -0.8125 12.375 C-0.73064453 11.18003906 -0.64878906 9.98507812 -0.56445312 8.75390625 C-0.36606659 5.83645724 -0.17814375 2.91874298 0 0 Z " fill="#01F75D" transform="translate(609,310)"/>
<path d="M0 0 C2.64 0 5.28 0 8 0 C8.04487549 0.73524902 8.08975098 1.47049805 8.13598633 2.22802734 C8.34939699 5.61123749 8.5808307 8.99299301 8.8125 12.375 C8.88275391 13.53128906 8.95300781 14.68757813 9.02539062 15.87890625 C9.77373864 27.78208707 9.77373864 27.78208707 14.76171875 38.3671875 C22.81144869 44.66981581 29.70468169 48.19645327 40.0625 48.1875 C41.20126587 48.1884668 41.20126587 48.1884668 42.36303711 48.18945312 C48.08537287 48.1358424 53.4652214 47.52308404 59 46 C56.53247709 48.85098931 53.93068057 50.12177169 50.5 51.625 C49.06140625 52.26308594 49.06140625 52.26308594 47.59375 52.9140625 C42.42190331 55.07938385 38.21432807 55.21663047 32.6875 55.25 C31.84509766 55.270625 31.00269531 55.29125 30.13476562 55.3125 C24.96971917 55.34480678 21.51516202 54.79895851 17 52 C16.67 52.33 16.34 52.66 16 53 C19.47843961 76.4794674 28.18953194 97.44068475 43 116 C43.46067871 116.58007812 43.92135742 117.16015625 44.39599609 117.7578125 C46.90631842 120.91566194 49.42789992 124.0642313 51.95703125 127.20703125 C54.85046158 130.80613147 57.71279017 134.4287241 60.5625 138.0625 C61.01004639 138.63307129 61.45759277 139.20364258 61.91870117 139.79150391 C63.27955765 141.52733778 64.63978248 143.2636654 66 145 C72.29546475 153.03072533 78.60527759 161.04782371 85 169 C84.34 169.33 83.68 169.66 83 170 C73.7076499 163.05519098 65.53004175 156.03362231 57.94140625 147.22265625 C55.71195939 144.67023117 53.41998618 142.18112486 51.125 139.6875 C47.03610965 135.2039053 43.15324387 130.6001035 39.34765625 125.875 C37.69169051 123.84706192 36.02238405 121.85240352 34.30859375 119.875 C20.28166197 103.68216295 9.94845683 87.30435241 6 66 C5.79101074 64.87916016 5.58202148 63.75832031 5.36669922 62.60351562 C4.66704645 58.80068527 3.98511327 54.9952037 3.3125 51.1875 C3.09770996 49.9718335 2.88291992 48.75616699 2.66162109 47.50366211 C0.62188625 35.53020662 -0.15564612 23.88765621 -0.0625 11.75 C-0.05798828 10.61175781 -0.05347656 9.47351563 -0.04882812 8.30078125 C-0.03720214 5.53379591 -0.02086431 2.76692842 0 0 Z " fill="#01F75D" transform="translate(407,310)"/>
<path d="M0 0 C3.27586938 3.02387942 4.31093295 4.89392451 4.72802734 9.36279297 C4.80886517 15.82373452 4.80886517 15.82373452 4.80810547 19.03955078 C4.81247227 21.11184289 4.84879685 23.1819915 4.88671875 25.25390625 C4.89251953 27.22810547 4.89251953 27.22810547 4.8984375 29.2421875 C4.90665527 30.44214355 4.91487305 31.64209961 4.92333984 32.87841797 C4.34154204 36.91591929 2.94652913 39.07416209 0.4375 42.25 C-3.95864669 45.35421786 -9.41594118 44.8681829 -14.5625 44.25 C-18.47325925 42.26031547 -20.13939098 40.88466354 -22.5625 37.25 C-22.9741696 32.71748315 -22.93410195 28.17538925 -22.93310547 23.62646484 C-22.93747166 21.38952098 -22.97377697 19.15456262 -23.01171875 16.91796875 C-23.01758877 15.48959005 -23.02155693 14.06120202 -23.0234375 12.6328125 C-23.03165527 11.33746582 -23.03987305 10.04211914 -23.04833984 8.70751953 C-22.48551425 4.70212455 -21.37104588 3.09658783 -18.5625 0.25 C-13.0948931 -3.43226587 -5.6666831 -2.7836338 0 0 Z " fill="#00FA5E" transform="translate(244.5625,772.75)"/>
<path d="M0 0 C18.90423474 0 18.90423474 0 24.34399414 5.27148438 C26.38502052 8.63437849 26.50236763 10.73916596 26.49609375 14.65625 C26.49673828 15.92597656 26.49738281 17.19570313 26.49804688 18.50390625 C26.47806641 19.82261719 26.45808594 21.14132812 26.4375 22.5 C26.44458984 23.81871094 26.45167969 25.13742187 26.45898438 26.49609375 C26.38613421 37.53569609 26.38613421 37.53569609 23 42 C19 45 19 45 0 45 C0 30.15 0 15.3 0 0 Z " fill="#00F559" transform="translate(262,771)"/>
<path d="M0 0 C18.375 0 18.375 0 23.8125 4.5 C27.17098755 8.74230007 26.54447053 14.90375586 26 20 C24.95618232 22.60212368 23.93272465 23.89674082 22 26 C21.34 26 20.68 26 20 26 C20.24234375 26.54003662 20.4846875 27.08007324 20.734375 27.63647461 C21.82483271 30.06929624 22.91245193 32.50337637 24 34.9375 C24.3815625 35.78763672 24.763125 36.63777344 25.15625 37.51367188 C25.5171875 38.32255859 25.878125 39.13144531 26.25 39.96484375 C26.58515625 40.7137085 26.9203125 41.46257324 27.265625 42.23413086 C28 44 28 44 28 45 C25.03 45 22.06 45 19 45 C18.31164062 43.28490234 18.31164062 43.28490234 17.609375 41.53515625 C16.9903796 40.04394006 16.37054415 38.55307237 15.75 37.0625 C15.44964844 36.30775391 15.14929688 35.55300781 14.83984375 34.77539062 C14.53691406 34.05673828 14.23398437 33.33808594 13.921875 32.59765625 C13.64956055 31.93258057 13.37724609 31.26750488 13.09667969 30.58227539 C11.91982677 28.51303335 11.91982677 28.51303335 8 28 C8 33.61 8 39.22 8 45 C5.36 45 2.72 45 0 45 C0 30.15 0 15.3 0 0 Z " fill="#00F55C" transform="translate(411,771)"/>
<path d="M0 0 C17 0 17 0 23 4 C26.41997791 7.87597496 26.4478893 11.66407151 26.29296875 16.62890625 C25.71566361 21.30122915 23.21556775 23.83847541 20 27 C20.5053125 28.04800781 21.010625 29.09601562 21.53125 30.17578125 C22.18780327 31.55454312 22.84403665 32.93345736 23.5 34.3125 C23.83386719 35.00279297 24.16773438 35.69308594 24.51171875 36.40429688 C27 41.66015625 27 41.66015625 27 45 C24.03 45 21.06 45 18 45 C16.99580363 42.5433053 15.99649499 40.08481647 15 37.625 C14.57074219 36.57699219 14.57074219 36.57699219 14.1328125 35.5078125 C12 30.2265625 12 30.2265625 12 28 C10.68 28 9.36 28 8 28 C8 33.61 8 39.22 8 45 C5.36 45 2.72 45 0 45 C0 30.15 0 15.3 0 0 Z " fill="#00F75A" transform="translate(642,771)"/>
<path d="M0 0 C0.66 0 1.32 0 2 0 C3.22768155 6.66691275 4.45436995 13.33400772 5.68041992 20.0012207 C6.09621556 22.26167785 6.51222519 24.52209564 6.9284668 26.7824707 C9.33407008 39.84683609 11.71171087 52.91454082 14 66 C5.75 66 -2.5 66 -11 66 C-10.3582445 59.58244498 -9.6449572 53.39914965 -8.4765625 47.08984375 C-8.32972015 46.27866592 -8.18287781 45.4674881 -8.03158569 44.63172913 C-7.56639776 42.06630154 -7.09588604 39.50188713 -6.625 36.9375 C-6.31733742 35.24811438 -6.01004349 33.55866158 -5.703125 31.86914062 C-5.24837368 29.36619154 -4.79334179 26.86329783 -4.33673096 24.36068726 C-2.85723931 16.24640859 -1.42359973 8.12424572 0 0 Z " fill="#13130F" transform="translate(226,607)"/>
<path d="M0 0 C7.41497501 4.2340582 14.51620477 9.0676732 20.4375 15.25 C19.54023771 18.34963336 18.95014054 19.89847506 16.25 21.75 C10.17049818 22.83080032 4.16718187 17.96224361 -0.8125 14.8125 C-12.33430567 7.70982089 -23.8820226 3.81637138 -37.5625 5.25 C-40.88876905 6.33970555 -43.9514025 7.63606555 -47.1015625 9.15625 C-49.5625 10.25 -49.5625 10.25 -52.5625 10.25 C-39.5851658 -10.06406417 -20.56584943 -10.64653591 0 0 Z " fill="#01F75D" transform="translate(477.5625,263.75)"/>
<path d="M0 0 C3.3 0 6.6 0 10 0 C11.67212316 4.72079684 12.86522645 9.44066987 13.9453125 14.3203125 C14.12005096 15.10139374 14.29478943 15.88247498 14.474823 16.68722534 C14.84109374 18.32905154 15.2057419 19.97124047 15.56884766 21.61376953 C16.12506162 24.12527825 16.68918326 26.63492387 17.25390625 29.14453125 C17.60985408 30.74468517 17.96533887 32.34494218 18.3203125 33.9453125 C18.48902863 34.69330109 18.65774475 35.44128967 18.83157349 36.21194458 C19.57204672 39.58926515 20 42.52149855 20 46 C17.36 46 14.72 46 12 46 C10 39.375 10 39.375 10 36 C6.7 36 3.4 36 0 36 C0.020625 37.11375 0.04125 38.2275 0.0625 39.375 C0 43 0 43 -1 45 C-3.64 45 -6.28 45 -9 45 C-8.4122338 38.95776349 -7.50764185 33.15958481 -6.15234375 27.24609375 C-5.88811363 26.06660912 -5.88811363 26.06660912 -5.61854553 24.86329651 C-5.06272041 22.38698669 -4.50023874 19.9122468 -3.9375 17.4375 C-3.55619658 15.74424056 -3.17533326 14.05088195 -2.79492188 12.35742188 C-1.86835767 8.23711897 -0.93582643 4.11820865 0 0 Z " fill="#00F65C" transform="translate(724,771)"/>
<path d="M0 0 C3.3 0 6.6 0 10 0 C11.1045033 4.80102024 12.2071281 9.60246684 13.30810547 14.40429688 C13.68195361 16.03364364 14.05629155 17.66287811 14.43115234 19.29199219 C18.95321011 38.94786994 18.95321011 38.94786994 20 45 C19 46 19 46 15.4375 46.0625 C14.303125 46.041875 13.16875 46.02125 12 46 C10.26265853 42.19956554 10 40.40285423 10 36 C6.7 36 3.4 36 0 36 C-0.2165625 38.1965625 -0.2165625 38.1965625 -0.4375 40.4375 C-0.875 44.875 -0.875 44.875 -2 46 C-4.33297433 46.04092937 -6.66705225 46.04241723 -9 46 C-10.24940111 43.50119778 -9.88627984 42.64537379 -9.30322266 39.94921875 C-9.12618805 39.11495361 -8.94915344 38.28068848 -8.76675415 37.42114258 C-8.56786591 36.51904053 -8.36897766 35.61693848 -8.1640625 34.6875 C-7.96525482 33.76283936 -7.76644714 32.83817871 -7.56161499 31.88549805 C-7.13933237 29.92785438 -6.71375223 27.97091959 -6.28515625 26.01464844 C-5.62804734 23.01391589 -4.9811235 20.01112869 -4.3359375 17.0078125 C-3.92507663 15.10924561 -3.51363764 13.21080371 -3.1015625 11.3125 C-2.90672272 10.41039795 -2.71188293 9.5082959 -2.51113892 8.57885742 C-2.32779999 7.74459229 -2.14446106 6.91032715 -1.95556641 6.05078125 C-1.71454697 4.94730347 -1.71454697 4.94730347 -1.46865845 3.8215332 C-1 2 -1 2 0 0 Z " fill="#01F65C" transform="translate(457,771)"/>
<path d="M0 0 C5.34109139 3.87122304 9.65856686 7.75617829 12 14 C10.603522 13.54363464 9.2078492 13.08480512 7.8125 12.625 C7.03519531 12.36976563 6.25789062 12.11453125 5.45703125 11.8515625 C3 11 3 11 0.6171875 9.91796875 C-10.07950637 6.16614329 -21.45567924 9.74143127 -31.17407227 14.41137695 C-36.91417649 17.2442055 -42.44270045 20.35280757 -47.81640625 23.8359375 C-50.2709537 25.14444401 -52.22924873 25.75180567 -55 26 C-57.8125 24.0625 -57.8125 24.0625 -60 22 C-59.73794116 18.5261968 -59.25172182 17.24189228 -56.69921875 14.7890625 C-41.01805759 3.52140584 -19.68660864 -11.03476574 0 0 Z " fill="#01F85D" transform="translate(586,260)"/>
<path d="M0 0 C2.64 0 5.28 0 8 0 C8.33 5.94 8.66 11.88 9 18 C12.3 12.06 15.6 6.12 19 0 C21.97 0 24.94 0 28 0 C26.43303397 4.31530959 24.25764831 8.18199304 21.9375 12.125 C19.11484561 16.89033897 19.11484561 16.89033897 17 22 C17.9823748 24.43966754 17.9823748 24.43966754 19.52734375 27.03515625 C20.07197266 28.00904297 20.61660156 28.98292969 21.17773438 29.98632812 C21.75845703 31.00146484 22.33917969 32.01660156 22.9375 33.0625 C24.07518647 35.0722009 25.20948302 37.08382586 26.33984375 39.09765625 C26.84894287 39.98976807 27.35804199 40.88187988 27.88256836 41.80102539 C29 44 29 44 29 46 C26.03 46 23.06 46 20 46 C18.65869239 43.73354942 17.32683766 41.46239903 16 39.1875 C15.6184375 38.54490234 15.236875 37.90230469 14.84375 37.24023438 C12 32.33984375 12 32.33984375 12 29 C11.34 29 10.68 29 10 29 C9.34 34.28 8.68 39.56 8 45 C5.36 45 2.72 45 0 45 C0 30.15 0 15.3 0 0 Z " fill="#00F85D" transform="translate(524,771)"/>
<path d="M0 0 C3.67688269 2.38054585 5.91827118 5.00921751 8.4375 8.578125 C1.07442834 12.78101122 -4.97497383 15.9268664 -13.5625 16.578125 C-14.30371094 16.64386719 -15.04492188 16.70960938 -15.80859375 16.77734375 C-25.57951903 17.24262591 -34.99871633 14.10655 -43.5625 9.578125 C-40.78083112 4.01478725 -36.5930231 -0.12873452 -30.87109375 -2.5703125 C-20.78904441 -5.16522012 -9.37291648 -4.53024297 0 0 Z " fill="#01F85C" transform="translate(475.5625,300.421875)"/>
<path d="M0 0 C1.16692383 -0.0309375 1.16692383 -0.0309375 2.35742188 -0.0625 C9.4590965 -0.10988398 15.81684563 1.36797248 21.25 6.1875 C21.81589844 6.67089844 22.38179687 7.15429688 22.96484375 7.65234375 C24.51447655 9.48944466 24.91215928 10.90369935 25.3125 13.25 C23.56447854 14.06674796 21.81399811 14.87823451 20.0625 15.6875 C19.08796875 16.13996094 18.1134375 16.59242188 17.109375 17.05859375 C11.31252066 19.52792416 5.91928383 19.50043044 -0.3125 19.5625 C-1.25996094 19.59150391 -2.20742188 19.62050781 -3.18359375 19.65039062 C-11.09826871 19.72076735 -18.1808762 18.25567755 -24.3125 13 C-24.993125 12.13375 -24.993125 12.13375 -25.6875 11.25 C-20.13361302 2.41427072 -9.7480381 0.06304309 0 0 Z " fill="#00FA5D" transform="translate(565.6875,296.75)"/>
<path d="M0 0 C7.59 0 15.18 0 23 0 C23 2.64 23 5.28 23 8 C18.38 8 13.76 8 9 8 C9 11.63 9 15.26 9 19 C12.96 19 16.92 19 21 19 C21 21.31 21 23.62 21 26 C17.04 26 13.08 26 9 26 C9 29.96 9 33.92 9 38 C13.95 38 18.9 38 24 38 C24 40.31 24 42.62 24 45 C16.08 45 8.16 45 0 45 C0 30.15 0 15.3 0 0 Z " fill="#00F85A" transform="translate(680,771)"/>
<path d="M0 0 C7.59 0 15.18 0 23 0 C23 2.64 23 5.28 23 8 C18.05 8 13.1 8 8 8 C8 11.63 8 15.26 8 19 C12.29 19 16.58 19 21 19 C21 21.31 21 23.62 21 26 C16.71 26 12.42 26 8 26 C8 29.96 8 33.92 8 38 C13.28 38 18.56 38 24 38 C24 40.31 24 42.62 24 45 C16.08 45 8.16 45 0 45 C0 30.15 0 15.3 0 0 Z " fill="#00F75D" transform="translate(788,771)"/>
<path d="M0 0 C7.59 0 15.18 0 23 0 C23 2.64 23 5.28 23 8 C18.05 8 13.1 8 8 8 C8 11.63 8 15.26 8 19 C12.29 19 16.58 19 21 19 C21 21.31 21 23.62 21 26 C16.71 26 12.42 26 8 26 C8 29.96 8 33.92 8 38 C13.28 38 18.56 38 24 38 C24 40.31 24 42.62 24 45 C16.08 45 8.16 45 0 45 C0 30.15 0 15.3 0 0 Z " fill="#00F75D" transform="translate(301,771)"/>
<path d="M0 0 C5.28 0 10.56 0 16 0 C16.68800964 36.74481097 16.68800964 36.74481097 9 50 C7.13671875 49.3984375 7.13671875 49.3984375 5 48 C3.76953125 45.1015625 3.76953125 45.1015625 2.8125 41.625 C2.48894531 40.48289062 2.16539062 39.34078125 1.83203125 38.1640625 C1.55746094 37.11992187 1.28289062 36.07578125 1 35 C0.81985352 34.42266113 0.63970703 33.84532227 0.45410156 33.25048828 C-0.18378819 30.08916154 -0.11086711 27.05157426 -0.09765625 23.828125 C-0.0962413 23.1457074 -0.09482635 22.46328979 -0.09336853 21.76019287 C-0.08779084 19.59008316 -0.07524254 17.4200783 -0.0625 15.25 C-0.05748211 13.77474108 -0.05291971 12.29948053 -0.04882812 10.82421875 C-0.03868148 7.21607337 -0.01910199 3.60815345 0 0 Z " fill="#00F95D" transform="translate(504,435)"/>
<path d="M0 0 C3.3020291 1.62204938 5.17219129 2.90879761 7.375 5.8125 C8.25805234 8.90318318 8.12279902 11.8072254 8 15 C5.36 15 2.72 15 0 15 C-0.99 12.69 -1.98 10.38 -3 8 C-4.66611905 7.957279 -6.33382885 7.95936168 -8 8 C-9.83034055 9.83034055 -9.13042797 12.73211992 -9.1328125 15.1875 C-9.13410156 16.44304688 -9.13539063 17.69859375 -9.13671875 18.9921875 C-9.13462402 19.64928711 -9.1325293 20.30638672 -9.13037109 20.98339844 C-9.12502234 22.99161335 -9.13031691 24.99960459 -9.13671875 27.0078125 C-9.13478516 28.89113281 -9.13478516 28.89113281 -9.1328125 30.8125 C-9.13168457 31.97394531 -9.13055664 33.13539063 -9.12939453 34.33203125 C-9.30337474 36.92063284 -9.30337474 36.92063284 -8 38 C-6.33382885 38.04063832 -4.66611905 38.042721 -3 38 C-2.34 35.69 -1.68 33.38 -1 31 C1.97 31 4.94 31 8 31 C7.86607143 39.83928571 7.86607143 39.83928571 4.0625 43.5625 C0.29274002 46.34715809 -3.01699242 46.75264964 -7.62890625 46.46484375 C-11.12243665 45.77995064 -13.34444713 44.32360876 -16 42 C-19.28732239 37.06901642 -18.41094736 31.20703555 -18.42553711 25.43139648 C-18.43740623 23.20508871 -18.48656404 20.98157985 -18.53710938 18.75585938 C-18.54657776 17.33074263 -18.55381081 15.90560893 -18.55859375 14.48046875 C-18.57204834 13.19035889 -18.58550293 11.90024902 -18.59936523 10.57104492 C-17.81506993 5.89817837 -16.31412237 4.32037012 -13 1 C-9.05322303 -0.97338848 -4.30160477 -0.44290148 0 0 Z " fill="#00F85E" transform="translate(392,771)"/>
<path d="M0 0 C3.68456013 1.56789793 6.11958924 3.43711646 8 7 C8.1875 10.75 8.1875 10.75 8 14 C5.36 14 2.72 14 0 14 C-0.66 12.02 -1.32 10.04 -2 8 C-4.31 8 -6.62 8 -9 8 C-9 17.9 -9 27.8 -9 38 C-3.52174919 38.4472136 -3.52174919 38.4472136 -1 37 C-0.34227572 33.97065509 -0.34227572 33.97065509 0 31 C2.64 31 5.28 31 8 31 C8.66964286 38.76785714 8.66964286 38.76785714 5.6875 42.4375 C1.56318359 46.36998774 -2.03906434 46.34084168 -7.48828125 46.28515625 C-11.17627371 45.86645726 -13.27384723 44.45353749 -16 42 C-19.2897794 37.03390888 -18.33387497 30.87943973 -18.31567383 25.15551758 C-18.31251523 23.07254637 -18.33598519 20.9909988 -18.36132812 18.90820312 C-18.36197266 17.58884766 -18.36261719 16.26949219 -18.36328125 14.91015625 C-18.36626221 13.70496338 -18.36924316 12.49977051 -18.37231445 11.25805664 C-17.85871024 6.76359882 -16.30828643 4.14970626 -12.9375 1.1875 C-8.61112925 -0.56145839 -4.60458125 -0.56134928 0 0 Z " fill="#00F85E" transform="translate(622,771)"/>
<path d="M0 0 C3.1938694 1.24039581 3.8177255 2.1099608 6 5 C6.74103674 8.01455764 6.98649667 10.90098663 7 14 C4.36 14 1.72 14 -1 14 C-1.33 12.02 -1.66 10.04 -2 8 C-4.64 8 -7.28 8 -10 8 C-10 17.9 -10 27.8 -10 38 C-7.69 38 -5.38 38 -3 38 C-2.34 35.69 -1.68 33.38 -1 31 C1.64 31 4.28 31 7 31 C7.29216602 35.96682232 7.24708889 39.10349334 4 43 C-0.74440661 46.27589981 -5.39508319 46.91242832 -11 46 C-15.06499899 43.93054597 -17.39645994 42.26349249 -19 38 C-19.3755199 33.72241105 -19.32932449 29.44839781 -19.31567383 25.15551758 C-19.31251523 23.07254637 -19.33598519 20.9909988 -19.36132812 18.90820312 C-19.36197266 17.58884766 -19.36261719 16.26949219 -19.36328125 14.91015625 C-19.36626221 13.70496338 -19.36924316 12.49977051 -19.37231445 11.25805664 C-18.87089376 6.8702146 -17.30321116 4.27524525 -14.1796875 1.21875 C-9.80148231 -1.22927871 -4.83865392 -0.66539567 0 0 Z " fill="#01F95D" transform="translate(204,771)"/>
<path d="M0 0 C3.29714286 1.17755102 5.2171897 2.00369598 7.375 4.75 C8.2409895 7.8675622 8.12368441 10.78420527 8 14 C5.36 14 2.72 14 0 14 C-0.66 12.02 -1.32 10.04 -2 8 C-3.66611905 7.957279 -5.33382885 7.95936168 -7 8 C-8.83034055 9.83034055 -8.13042797 12.73211992 -8.1328125 15.1875 C-8.13410156 16.44304688 -8.13539063 17.69859375 -8.13671875 18.9921875 C-8.13462402 19.64928711 -8.1325293 20.30638672 -8.13037109 20.98339844 C-8.12502234 22.99161335 -8.13031691 24.99960459 -8.13671875 27.0078125 C-8.13478516 28.89113281 -8.13478516 28.89113281 -8.1328125 30.8125 C-8.13168457 31.97394531 -8.13055664 33.13539063 -8.12939453 34.33203125 C-8.30337474 36.92063284 -8.30337474 36.92063284 -7 38 C-5.33382885 38.04063832 -3.66611905 38.042721 -2 38 C-1.34 35.69 -0.68 33.38 0 31 C2.97 31 5.94 31 9 31 C8.632806 39.20066611 8.632806 39.20066611 5.625 43 C1.08229611 46.46110773 -3.47274956 46.69798043 -9 46 C-12.8026029 43.9949912 -14.61790841 42.57313738 -17 39 C-17.43449669 34.4864276 -17.4140892 29.96327495 -17.42553711 25.43139648 C-17.43740623 23.20508871 -17.48656404 20.98157985 -17.53710938 18.75585938 C-17.54657776 17.33074263 -17.55381081 15.90560893 -17.55859375 14.48046875 C-17.57204834 13.19035889 -17.58550293 11.90024902 -17.59936523 10.57104492 C-16.81506993 5.89817837 -15.31412237 4.32037012 -12 1 C-8.30723866 -0.84638067 -4.03883185 -0.34689353 0 0 Z " fill="#00F95E" transform="translate(504,771)"/>
<path d="M0 0 C8.58 0 17.16 0 26 0 C26 2.64 26 5.28 26 8 C23.03 8 20.06 8 17 8 C17 20.21 17 32.42 17 45 C14.36 45 11.72 45 9 45 C9 32.79 9 20.58 9 8 C6.03 8 3.06 8 0 8 C0 5.36 0 2.72 0 0 Z " fill="#00F45B" transform="translate(750,771)"/>
<path d="M0 0 C8.25 0 16.5 0 25 0 C25 52.8 25 105.6 25 160 C16.09 160 7.18 160 -2 160 C-2 159.34 -2 158.68 -2 158 C6.25 158 14.5 158 23 158 C23 106.19 23 54.38 23 1 C15.74 1 8.48 1 1 1 C1 33.34 1 65.68 1 99 C0.67 99 0.34 99 0 99 C0 66.33 0 33.66 0 0 Z " fill="#01E05D" transform="translate(354,567)"/>
<path d="M0 0 C0.33 0 0.66 0 1 0 C1 14.19 1 28.38 1 43 C5.455 42.505 5.455 42.505 10 42 C10.33 41.34 10.66 40.68 11 40 C10.01 39.34 9.02 38.68 8 38 C10.97 37.01 13.94 36.02 17 35 C17.0867562 30.70845978 17.1403089 26.41714332 17.1875 22.125 C17.21263672 20.90167969 17.23777344 19.67835938 17.26367188 18.41796875 C17.27333984 17.25136719 17.28300781 16.08476563 17.29296875 14.8828125 C17.3086792 13.80402832 17.32438965 12.72524414 17.34057617 11.61376953 C17.22818604 10.75122559 17.1157959 9.88868164 17 9 C13.55549263 6.70366176 11.06187717 6.45983515 7 6 C7 5.67 7 5.34 7 5 C9.64 5 12.28 5 15 5 C14.67 4.67 14.34 4.34 14 4 C14 3.34 14 2.68 14 2 C15.32 2 16.64 2 18 2 C18.33 1.34 18.66 0.68 19 0 C24.875 4.75 24.875 4.75 26 7 C26.23432625 11.08615281 26.22839964 15.17400386 26.24023438 19.26635742 C26.24991423 21.29452939 26.28092532 23.32167642 26.3125 25.34960938 C26.31765625 26.63287109 26.3228125 27.91613281 26.328125 29.23828125 C26.34214355 31.002323 26.34214355 31.002323 26.35644531 32.80200195 C25.95785058 36.37816116 25.17176208 38.15592365 23 41 C19 44 19 44 0 44 C0 29.48 0 14.96 0 0 Z " fill="#00FB61" transform="translate(262,772)"/>
<path d="M0 0 C18.15 0 36.3 0 55 0 C49.35205993 5.64794007 49.35205993 5.64794007 45.9375 7.25 C45.28652344 7.56453125 44.63554688 7.8790625 43.96484375 8.203125 C34.49643632 12.04319481 20.07989525 11.58163299 10.5625 8.3125 C6.42215555 6.46648655 3.20101555 4.20101555 0 1 C0 0.67 0 0.34 0 0 Z " fill="#00FA5E" transform="translate(484,413)"/>
<path d="M0 0 C1.0725 0.53625 2.145 1.0725 3.25 1.625 C4.99193868 6.85081604 5.20030398 12.4981292 2.9375 17.5625 C1.45669207 19.37237636 -0.08525678 20.98823566 -1.75 22.625 C-1.2446875 23.67300781 -0.739375 24.72101562 -0.21875 25.80078125 C0.43780327 27.17954312 1.09403665 28.55845736 1.75 29.9375 C2.25080078 30.97293945 2.25080078 30.97293945 2.76171875 32.02929688 C5.25 37.28515625 5.25 37.28515625 5.25 40.625 C2.28 40.625 -0.69 40.625 -3.75 40.625 C-4.75419637 38.1683053 -5.75350501 35.70981647 -6.75 33.25 C-7.03617188 32.55132813 -7.32234375 31.85265625 -7.6171875 31.1328125 C-9.75 25.8515625 -9.75 25.8515625 -9.75 23.625 C-11.07 23.295 -12.39 22.965 -13.75 22.625 C-12.76 21.635 -11.77 20.645 -10.75 19.625 C-11.41 19.295 -12.07 18.965 -12.75 18.625 C-12.75 17.965 -12.75 17.305 -12.75 16.625 C-10.44 15.965 -8.13 15.305 -5.75 14.625 C-5.75 11.325 -5.75 8.025 -5.75 4.625 C-8.39 3.965 -11.03 3.305 -13.75 2.625 C-12.9375 0.6875 -12.9375 0.6875 -11.75 -1.375 C-7.20197989 -2.8910067 -4.44773828 -1.63083737 0 0 Z " fill="#01F65C" transform="translate(663.75,775.375)"/>
<path d="M0 0 C0.33 0 0.66 0 1 0 C1 52.47 1 104.94 1 159 C8.92 159 16.84 159 25 159 C25 159.66 25 160.32 25 161 C20.85418113 161.02886751 16.70838784 161.04675327 12.5625 161.0625 C11.37849609 161.07087891 10.19449219 161.07925781 8.97460938 161.08789062 C7.84990234 161.09111328 6.72519531 161.09433594 5.56640625 161.09765625 C4.00321655 161.10551147 4.00321655 161.10551147 2.40844727 161.11352539 C0 161 0 161 -1 160 C-1.39207131 156.22131799 -1.43315585 152.40883493 -1.55859375 148.61328125 C-1.60084579 147.35244217 -1.64309784 146.09160309 -1.68663025 144.79255676 C-2.30639727 124.39748876 -2.10977095 103.98138733 -2.06866455 83.57965088 C-2.05826977 77.85974504 -2.05383301 72.13983452 -2.04882812 66.41992188 C-2.03823614 55.27993595 -2.02126399 44.13997033 -2 33 C-1.67 33 -1.34 33 -1 33 C-0.67 22.11 -0.34 11.22 0 0 Z " fill="#0F3816" transform="translate(507,567)"/>
<path d="M0 0 C1.670625 0.37125 1.670625 0.37125 3.375 0.75 C5.54646805 5.0929361 4.60466856 10.9172356 4.625 15.6875 C4.645625 16.89341797 4.66625 18.09933594 4.6875 19.34179688 C4.69265625 20.49615234 4.6978125 21.65050781 4.703125 22.83984375 C4.7124707 23.90066162 4.72181641 24.96147949 4.73144531 26.05444336 C4.375 28.75 4.375 28.75 3.08105469 30.63500977 C1.375 31.75 1.375 31.75 -2.25 31.5 C-5.625 30.75 -5.625 30.75 -6.625 29.75 C-6.90688316 25.11045946 -6.8568207 20.4595829 -6.875 15.8125 C-6.895625 14.49830078 -6.91625 13.18410156 -6.9375 11.83007812 C-6.94265625 10.57775391 -6.9478125 9.32542969 -6.953125 8.03515625 C-6.96714355 6.30084351 -6.96714355 6.30084351 -6.98144531 4.53149414 C-6.86381836 3.61360107 -6.74619141 2.69570801 -6.625 1.75 C-3.625 -0.25 -3.625 -0.25 0 0 Z " fill="#12120D" transform="translate(236.625,778.25)"/>
<path d="M0 0 C1.33333333 2 2.66666667 4 4 6 C4.33 6.33 4.66 6.66 5 7 C5.66 6.34 6.32 5.68 7 5 C7.99 5 8.98 5 10 5 C10.8801587 8.96772964 11.75280609 12.93702746 12.6184082 16.90795898 C12.9141777 18.25965323 13.21202587 19.61089433 13.51196289 20.96166992 C13.9417778 22.89903399 14.36359604 24.83816677 14.78515625 26.77734375 C15.04176025 27.94515381 15.29836426 29.11296387 15.56274414 30.31616211 C15.77918579 31.64466187 15.77918579 31.64466187 16 33 C15 34 15 34 11.4375 34.0625 C10.303125 34.041875 9.16875 34.02125 8 34 C6.19769832 30.17010894 5.80377759 27.21878192 6 23 C4.68 22.67 3.36 22.34 2 22 C2.66 20.68 3.32 19.36 4 18 C1.69 18 -0.62 18 -3 18 C-2.01 12.06 -1.02 6.12 0 0 Z " fill="#01F25B" transform="translate(461,783)"/>
<path d="M0 0 C2.64 0 5.28 0 8 0 C10.68487165 2.68487165 10.25769449 4.06476981 10.265625 7.8125 C10.26820313 8.97007812 10.27078125 10.12765625 10.2734375 11.3203125 C10.26570313 12.53460937 10.25796875 13.74890625 10.25 15 C10.25773437 16.21429687 10.26546875 17.42859375 10.2734375 18.6796875 C10.27085937 19.83726562 10.26828125 20.99484375 10.265625 22.1875 C10.26336914 23.25355469 10.26111328 24.31960938 10.25878906 25.41796875 C10 28 10 28 8 30 C5.36 30 2.72 30 0 30 C0 20.1 0 10.2 0 0 Z " fill="#120E0C" transform="translate(270,779)"/>
<path d="M0 0 C0.66 0 1.32 0 2 0 C2.66 2.31 3.32 4.62 4 7 C5.32 7.33 6.64 7.66 8 8 C8.33 6.35 8.66 4.7 9 3 C9.33 3 9.66 3 10 3 C11.00692527 7.41511736 12.00434223 11.83232925 13 16.25 C13.28617188 17.50425781 13.57234375 18.75851562 13.8671875 20.05078125 C14.13789062 21.25605469 14.40859375 22.46132813 14.6875 23.703125 C14.93886719 24.81333008 15.19023438 25.92353516 15.44921875 27.06738281 C16 30 16 30 16 34 C13.36 34 10.72 34 8 34 C6.10126582 27.5443038 6.10126582 27.5443038 5.5 24.3125 C4.98767191 21.9429826 4.1730297 20.11145346 3 18 C3.99 18 4.98 18 6 18 C4.81575674 16.58422523 4.81575674 16.58422523 1.4375 16.9375 C-0.2640625 16.9684375 -0.2640625 16.9684375 -2 17 C-1.03644647 5.47835991 -1.03644647 5.47835991 0 0 Z " fill="#01EF59" transform="translate(728,783)"/>
<path d="M0 0 C7.59 0 15.18 0 23 0 C23 2.64 23 5.28 23 8 C18.38 8 13.76 8 9 8 C9 11.63 9 15.26 9 19 C8.67 19 8.34 19 8 19 C7.67 13.72 7.34 8.44 7 3 C5.35 2.67 3.7 2.34 2 2 C2 15.86 2 29.72 2 44 C9.26 44 16.52 44 24 44 C24 44.33 24 44.66 24 45 C16.08 45 8.16 45 0 45 C0 30.15 0 15.3 0 0 Z " fill="#00E65C" transform="translate(680,771)"/>
<path d="M0 0 C1.81248985 3.6249797 2.31888915 5.37259584 2.625 9.25 C2.69976563 10.14203125 2.77453125 11.0340625 2.8515625 11.953125 C2.90054688 12.62859375 2.94953125 13.3040625 3 14 C2.67 14 2.34 14 2 14 C1.67 45.68 1.34 77.36 1 110 C-6.92 110 -14.84 110 -23 110 C-23 109.67 -23 109.34 -23 109 C-15.41 109 -7.82 109 0 109 C0 73.03 0 37.06 0 0 Z " fill="#140603" transform="translate(743,618)"/>
<path d="M0 0 C2 1 2 1 2.7109375 2.71484375 C3.03964844 3.81505859 3.03964844 3.81505859 3.375 4.9375 C4.98502798 10.07307641 6.95381007 15.02474632 9 20 C6.03 20 3.06 20 0 20 C-1.00460531 17.87717331 -2.00355602 15.75166979 -3 13.625 C-3.556875 12.44164062 -4.11375 11.25828125 -4.6875 10.0390625 C-6 7 -6 7 -6 5 C-5.38125 4.9175 -4.7625 4.835 -4.125 4.75 C-1.81562433 4.18741541 -1.81562433 4.18741541 -0.75 1.9375 C-0.5025 1.298125 -0.255 0.65875 0 0 Z " fill="#01F75E" transform="translate(430,796)"/>
<path d="M0 0 C7.875 0.875 7.875 0.875 9 2 C9.09851171 3.83115883 9.12972629 5.66619933 9.125 7.5 C9.12757813 8.5003125 9.13015625 9.500625 9.1328125 10.53125 C9 13 9 13 8 14 C5.32941149 14.14115161 2.67567762 14.04247107 0 14 C0 9.38 0 4.76 0 0 Z " fill="#121E0E" transform="translate(419,778)"/>
<path d="M0 0 C0.66 0 1.32 0 2 0 C2.02689216 1.47906892 2.04634621 2.95827483 2.0625 4.4375 C2.07410156 5.26121094 2.08570313 6.08492187 2.09765625 6.93359375 C2 9 2 9 1 10 C-0.85287502 10.07226502 -2.70833878 10.0838122 -4.5625 10.0625 C-5.57441406 10.05347656 -6.58632813 10.04445313 -7.62890625 10.03515625 C-8.80259766 10.01775391 -8.80259766 10.01775391 -10 10 C-10 12.97 -10 15.94 -10 19 C-5.05 19 -0.1 19 5 19 C6.36952673 21.73905345 6.12621361 23.97087332 6 27 C5.67 27.66 5.34 28.32 5 29 C-3.25 29 -11.5 29 -20 29 C-20 28.67 -20 28.34 -20 28 C-12.08 28 -4.16 28 4 28 C4 25.36 4 22.72 4 20 C-1.28 20 -6.56 20 -12 20 C-12 16.04 -12 12.08 -12 8 C-7.71 8 -3.42 8 1 8 C0.67 5.36 0.34 2.72 0 0 Z " fill="#150305" transform="translate(321,789)"/>
<path d="M0 0 C6.875 0.875 6.875 0.875 8 2 C8.1245486 3.64230364 8.17568524 5.29052276 8.1875 6.9375 C8.20167969 7.83339844 8.21585938 8.72929688 8.23046875 9.65234375 C8 12 8 12 6 14 C4.02 14 2.04 14 0 14 C0 9.38 0 4.76 0 0 Z " fill="#12150C" transform="translate(651,778)"/>
<path d="M0 0 C17 0 17 0 23 4 C22.01 4.495 22.01 4.495 21 5 C19.68 4.34 18.36 3.68 17 3 C12.05 2.67 7.1 2.34 2 2 C1.67 15.86 1.34 29.72 1 44 C0.67 44 0.34 44 0 44 C0 29.48 0 14.96 0 0 Z " fill="#00E558" transform="translate(642,771)"/>
<path d="M0 0 C1.60294922 0.01353516 1.60294922 0.01353516 3.23828125 0.02734375 C4.04652344 0.03894531 4.85476563 0.05054688 5.6875 0.0625 C4.3675 0.3925 3.0475 0.7225 1.6875 1.0625 C1.6875 1.7225 1.6875 2.3825 1.6875 3.0625 C2.450625 3.000625 3.21375 2.93875 4 2.875 C6.6875 3.0625 6.6875 3.0625 9.6875 6.0625 C4.7375 6.0625 -0.2125 6.0625 -5.3125 6.0625 C-5.3125 9.6925 -5.3125 13.3225 -5.3125 17.0625 C-5.6425 17.0625 -5.9725 17.0625 -6.3125 17.0625 C-6.6425 12.7725 -6.9725 8.4825 -7.3125 4.0625 C-8.6325 4.0625 -9.9525 4.0625 -11.3125 4.0625 C-11.3125 3.0725 -11.3125 2.0825 -11.3125 1.0625 C-7.47525828 0.15836327 -3.93747726 -0.04326898 0 0 Z " fill="#02DD4F" transform="translate(801.3125,772.9375)"/>
<path d="M0 0 C2.64 0 5.28 0 8 0 C8 3.3 8 6.6 8 10 C5.66705225 10.04241723 3.33297433 10.04092937 1 10 C0 9 0 9 -0.09765625 6.93359375 C-0.08605469 6.10988281 -0.07445312 5.28617188 -0.0625 4.4375 C-0.05347656 3.61121094 -0.04445313 2.78492188 -0.03515625 1.93359375 C-0.02355469 1.29550781 -0.01195312 0.65742187 0 0 Z " fill="#00F85C" transform="translate(823,807)"/>
<path d="M0 0 C0.66 0.33 1.32 0.66 2 1 C-0.2034806 2.1560727 -2.41203156 3.29984721 -4.625 4.4375 C-5.24246094 4.76298828 -5.85992187 5.08847656 -6.49609375 5.42382812 C-12.17938415 8.32529744 -16.76454671 9.65056116 -23 8 C-20.8614515 5.8614515 -19.86724686 5.57344937 -17 5 C-18.32 4.34 -19.64 3.68 -21 3 C-19.73542969 2.86722656 -18.47085937 2.73445313 -17.16796875 2.59765625 C-15.50779375 2.41944537 -13.84763852 2.24105037 -12.1875 2.0625 C-11.35412109 1.97548828 -10.52074219 1.88847656 -9.66210938 1.79882812 C-8.45844727 1.66831055 -8.45844727 1.66831055 -7.23046875 1.53515625 C-6.12288208 1.41732788 -6.12288208 1.41732788 -4.99291992 1.29711914 C-2.79730622 1.02848004 -2.79730622 1.02848004 0 0 Z " fill="#02DE57" transform="translate(464,356)"/>
<path d="M0 0 C0.66 0 1.32 0 2 0 C2.99 5.61 3.98 11.22 5 17 C2.69 17 0.38 17 -2 17 C-1.03644647 5.47835991 -1.03644647 5.47835991 0 0 Z " fill="#14140B" transform="translate(728,783)"/>
<path d="M0 0 C2.32590854 3.63423209 2.16265833 6.77088331 2 11 C-0.64 11 -3.28 11 -6 11 C-5.67 10.34 -5.34 9.68 -5 9 C-5.09723451 7.00978479 -5.09723451 7.00978479 -5.4375 4.875 C-5.623125 3.59625 -5.80875 2.3175 -6 1 C-4 0 -4 0 0 0 Z " fill="#02E153" transform="translate(398,775)"/>
<path d="M0 0 C1.95979369 2.93969054 2.48320069 4.55022586 3.125 7.9375 C3.29257812 8.79214844 3.46015625 9.64679687 3.6328125 10.52734375 C4 13 4 13 4 17 C1.69 17 -0.62 17 -3 17 C-2.01 11.39 -1.02 5.78 0 0 Z " fill="#141008" transform="translate(461,783)"/>
<path d="M0 0 C2.31 0 4.62 0 7 0 C7 2.97 7 5.94 7 9 C4.69 9 2.38 9 0 9 C0 6.03 0 3.06 0 0 Z " fill="#01FA61" transform="translate(337,807)"/>
<path d="M0 0 C2.31 0 4.62 0 7 0 C7 2.97 7 5.94 7 9 C4.69 9 2.38 9 0 9 C0 6.03 0 3.06 0 0 Z " fill="#00FC63" transform="translate(565,807)"/>
<path d="M0 0 C0.63164063 0.20496094 1.26328125 0.40992188 1.9140625 0.62109375 C9.59467628 2.93413162 17.0039578 3.66148143 25 4 C25 4.33 25 4.66 25 5 C23.35 5.33 21.7 5.66 20 6 C20 6.99 20 7.98 20 9 C12.92596166 8.6784528 7.02613423 5.58336373 1 2 C0.67 1.34 0.34 0.68 0 0 Z " fill="#02DD56" transform="translate(556,355)"/>
<path d="M0 0 C0.33 0 0.66 0 1 0 C1 2.31 1 4.62 1 7 C-7.25 7 -15.5 7 -24 7 C-24 6.01 -24 5.02 -24 4 C-16.08 4 -8.16 4 0 4 C0 2.68 0 1.36 0 0 Z " fill="#0F3A19" transform="translate(205,722)"/>
<path d="M0 0 C1.134375 0.020625 2.26875 0.04125 3.4375 0.0625 C2.7775 1.3825 2.1175 2.7025 1.4375 4.0625 C4.7375 4.3925 8.0375 4.7225 11.4375 5.0625 C11.4375 5.3925 11.4375 5.7225 11.4375 6.0625 C6.8175 6.0625 2.1975 6.0625 -2.5625 6.0625 C-2.5625 9.6925 -2.5625 13.3225 -2.5625 17.0625 C-2.8925 17.0625 -3.2225 17.0625 -3.5625 17.0625 C-3.75636492 14.41698944 -3.94288267 11.77132217 -4.125 9.125 C-4.18107422 8.37025391 -4.23714844 7.61550781 -4.29492188 6.83789062 C-4.42426157 4.91504042 -4.49766912 2.98860452 -4.5625 1.0625 C-3.5625 0.0625 -3.5625 0.0625 0 0 Z " fill="#03CA49" transform="translate(691.5625,772.9375)"/>
<path d="M0 0 C9.92355879 0.66157059 14.68980944 7.01714953 21 14 C17.54444489 14 16.77348084 13.39788822 14.0234375 11.4453125 C12.89421875 10.64673828 12.89421875 10.64673828 11.7421875 9.83203125 C10.96101563 9.26871094 10.17984375 8.70539063 9.375 8.125 C8.58609375 7.56941406 7.7971875 7.01382812 6.984375 6.44140625 C1.13535756 2.27071512 1.13535756 2.27071512 0 0 Z " fill="#03E662" transform="translate(455,499)"/>
<path d="M0 0 C0.33 1.32 0.66 2.64 1 4 C8.92 4 16.84 4 25 4 C25 4.99 25 5.98 25 7 C21.02084841 7.02886984 17.04172347 7.04675406 13.0625 7.0625 C11.35803711 7.07506836 11.35803711 7.07506836 9.61914062 7.08789062 C8.53955078 7.09111328 7.45996094 7.09433594 6.34765625 7.09765625 C4.84730835 7.10551147 4.84730835 7.10551147 3.31665039 7.11352539 C1 7 1 7 0 6 C-0.04080783 4.00041636 -0.04254356 1.99954746 0 0 Z " fill="#0F3D1A" transform="translate(248,722)"/>
<path d="M0 0 C0.66 0.33 1.32 0.66 2 1 C0.92646259 2.4655595 -0.1592554 3.92220152 -1.25 5.375 C-1.85328125 6.18710937 -2.4565625 6.99921875 -3.078125 7.8359375 C-5.05357212 10.06032308 -6.39221033 10.69610516 -9 12 C-10.9790875 13.84088307 -12.87453775 15.6855456 -14.75 17.625 C-15.50990234 18.3984375 -15.50990234 18.3984375 -16.28515625 19.1875 C-17.52803902 20.45383339 -18.76465276 21.7263144 -20 23 C-20.66 22.67 -21.32 22.34 -22 22 C-14.74 14.74 -7.48 7.48 0 0 Z " fill="#02F064" transform="translate(611,451)"/>
<path d="M0 0 C11.15330089 0.55766504 20.52041846 5.37449076 30 11 C29.01 11.495 29.01 11.495 28 12 C26.29174805 11.37915039 26.29174805 11.37915039 24.26171875 10.34765625 C23.52373047 9.98349609 22.78574219 9.61933594 22.02539062 9.24414062 C20.47770287 8.46189243 18.93081464 7.67806019 17.38476562 6.89257812 C11.97878375 4.19096825 11.97878375 4.19096825 6 4 C5.67 4.66 5.34 5.32 5 6 C5 4.35 5 2.7 5 1 C3.35 1 1.7 1 0 1 C0 0.67 0 0.34 0 0 Z " fill="#150B08" transform="translate(515,106)"/>
<path d="M0 0 C0.99 0.33 1.98 0.66 3 1 C2.67 3.31 2.34 5.62 2 8 C3.65 8 5.3 8 7 8 C7 5.69 7 3.38 7 1 C7.33 1 7.66 1 8 1 C8 3.97 8 6.94 8 10 C5.66705225 10.04241723 3.33297433 10.04092937 1 10 C0 9 0 9 -0.09765625 6.93359375 C-0.08605469 6.10988281 -0.07445312 5.28617188 -0.0625 4.4375 C-0.05347656 3.61121094 -0.04445313 2.78492188 -0.03515625 1.93359375 C-0.02355469 1.29550781 -0.01195312 0.65742187 0 0 Z " fill="#03BC4D" transform="translate(823,807)"/>
<path d="M0 0 C1.98 0.66 3.96 1.32 6 2 C3.24479785 4.95929119 0.53372712 7.03681826 -3 9 C-3.33 8.01 -3.66 7.02 -4 6 C-2.84338843 3.79192337 -1.77322566 1.77322566 0 0 Z " fill="#03EE5E" transform="translate(566,495)"/>
<path d="M0 0 C2.96052484 3.36423277 3.92289822 6.69159287 5 11 C7.64 10.67 10.28 10.34 13 10 C13.33 10.99 13.66 11.98 14 13 C11.03 13 8.06 13 5 13 C4.15615325 11.58957044 3.32530504 10.17135868 2.5 8.75 C2.0359375 7.96109375 1.571875 7.1721875 1.09375 6.359375 C0 4 0 4 0 0 Z " fill="#02DD5B" transform="translate(539,804)"/>
<path d="M0 0 C5.63689034 1.32632714 7.93185683 5.46631765 11 10 C6.01987239 8.49087042 2.75740058 5.44338151 -1 2 C-0.67 1.34 -0.34 0.68 0 0 Z " fill="#02F367" transform="translate(481,470)"/>
<path d="M0 0 C2.64 0 5.28 0 8 0 C8.125 3.375 8.125 3.375 8 7 C7.34 7.66 6.68 8.32 6 9 C6.33 6.36 6.66 3.72 7 1 C5.02 1 3.04 1 1 1 C1.12375 1.9075 1.2475 2.815 1.375 3.75 C1.25125 4.8225 1.1275 5.895 1 7 C-2 9.375 -2 9.375 -5 11 C-5.66 10.01 -6.32 9.02 -7 8 C-5.02 7.34 -3.04 6.68 -1 6 C-0.67 4.02 -0.34 2.04 0 0 Z " fill="#01FA6C" transform="translate(203,802)"/>
<path d="M0 0 C2.96175123 0.61277612 4.38058783 1.25372522 7 3 C7 3.66 7 4.32 7 5 C7.78375 4.938125 8.5675 4.87625 9.375 4.8125 C10.674375 4.9053125 10.674375 4.9053125 12 5 C12.99 6.485 12.99 6.485 14 8 C11.5 9 11.5 9 8 9 C4.96320027 6.65981383 2.4239093 3.96529006 0 1 C0 0.67 0 0.34 0 0 Z " fill="#04DF5A" transform="translate(471,463)"/>
<path d="M0 0 C3.96 0 7.92 0 12 0 C12 0.33 12 0.66 12 1 C10.02 1.33 8.04 1.66 6 2 C7.39195915 4.7839183 9.15575779 4.97898997 12 6 C11.34 6.66 10.68 7.32 10 8 C8.51714758 7.04737966 7.03881799 6.08771595 5.5625 5.125 C4.73878906 4.59132813 3.91507812 4.05765625 3.06640625 3.5078125 C1 2 1 2 0 0 Z " fill="#02F267" transform="translate(484,413)"/>
<path d="M0 0 C3.00765886 2.84936103 5.27845212 5.23511958 7 9 C5.53932801 8.54917531 4.08151968 8.08906463 2.625 7.625 C1.81289063 7.36976563 1.00078125 7.11453125 0.1640625 6.8515625 C-2 6 -2 6 -4 4 C-2.68 3.34 -1.36 2.68 0 2 C0 1.34 0 0.68 0 0 Z " fill="#03E563" transform="translate(591,265)"/>
<path d="M0 0 C2.97 0 5.94 0 9 0 C8.67 0.99 8.34 1.98 8 3 C5.69 2.67 3.38 2.34 1 2 C0.9175 2.61875 0.835 3.2375 0.75 3.875 C0 6 0 6 -4 8 C-2.68 5.36 -1.36 2.72 0 0 Z " fill="#01F064" transform="translate(543,771)"/>
<path d="M0 0 C1.79379098 0.44994757 3.58498928 0.91024143 5.375 1.375 C6.37273438 1.63023437 7.37046875 1.88546875 8.3984375 2.1484375 C11 3 11 3 13 5 C13 5.66 13 6.32 13 7 C7.92990529 6.52467862 4.02506742 3.95637706 0 1 C0 0.67 0 0.34 0 0 Z " fill="#03E166" transform="translate(556,355)"/>
<path d="M0 0 C0.66 0.99 1.32 1.98 2 3 C1.125 6.6875 1.125 6.6875 0 10 C1.98 10 3.96 10 6 10 C6 10.66 6 11.32 6 12 C3.69 12 1.38 12 -1 12 C-2.3609623 9.2780754 -1.70366248 7.8168043 -1.0625 4.875 C-0.86785156 3.96492187 -0.67320312 3.05484375 -0.47265625 2.1171875 C-0.31667969 1.41851563 -0.16070312 0.71984375 0 0 Z " fill="#02D859" transform="translate(449,805)"/>
<path d="M0 0 C0 3.58050122 -0.83159845 4.51032702 -2.875 7.375 C-5.09274543 10.4927001 -6.68952504 13.39937464 -8 17 C-8.671875 15.31640625 -8.671875 15.31640625 -9 13 C-7.890625 10.52734375 -7.890625 10.52734375 -6.25 7.9375 C-5.71890625 7.08027344 -5.1878125 6.22304688 -4.640625 5.33984375 C-3.22020041 3.31404773 -1.81542429 1.66778437 0 0 Z " fill="#01F66A" transform="translate(413,574)"/>
<path d="M0 0 C2.31 0.33 4.62 0.66 7 1 C7 2.32 7 3.64 7 5 C4.69 5 2.38 5 0 5 C0 3.35 0 1.7 0 0 Z " fill="#01FB63" transform="translate(732,792)"/>
<path d="M0 0 C0.66 0 1.32 0 2 0 C2 2.64 2 5.28 2 8 C4.31 8 6.62 8 9 8 C9 8.33 9 8.66 9 9 C2.84765625 9.87890625 2.84765625 9.87890625 1 10 C0 9 0 9 -0.09765625 6.93359375 C-0.08605469 6.10988281 -0.07445312 5.28617188 -0.0625 4.4375 C-0.05347656 3.61121094 -0.04445313 2.78492188 -0.03515625 1.93359375 C-0.02355469 1.29550781 -0.01195312 0.65742187 0 0 Z " fill="#122814" transform="translate(563,808)"/>
<path d="M0 0 C0.99 0.33 1.98 0.66 3 1 C3.66 4.63 4.32 8.26 5 12 C4.34 12 3.68 12 3 12 C-0.42857143 4.71428571 -0.42857143 4.71428571 0 0 Z " fill="#01E85B" transform="translate(763,623)"/>
<path d="M0 0 C0.33 0 0.66 0 1 0 C2.10228696 4.40914783 2.07654536 8.48382401 2 13 C1.67 12.01 1.34 11.02 1 10 C0.34 10 -0.32 10 -1 10 C-1.125 2.25 -1.125 2.25 0 0 Z " fill="#131F0D" transform="translate(410,358)"/>
<path d="M0 0 C5.95507399 0.3916035 10.62819824 1.37124595 16 4 C12.70303895 5.09898702 11.59505097 4.87124444 8.3125 4.0625 C7.10013672 3.77052734 7.10013672 3.77052734 5.86328125 3.47265625 C5.24839844 3.31667969 4.63351562 3.16070312 4 3 C4 2.34 4 1.68 4 1 C2.68 0.67 1.36 0.34 0 0 Z " fill="#160C08" transform="translate(452,269)"/>
<path d="M0 0 C0.66 0.66 1.32 1.32 2 2 C5.09926819 1.67801034 5.09926819 1.67801034 8 1 C4.71739341 3.18840439 1.49181927 5.15885893 -2 7 C-2.66 6.67 -3.32 6.34 -4 6 C-2.68 4.02 -1.36 2.04 0 0 Z " fill="#04DD61" transform="translate(429,268)"/>
<path d="M0 0 C8 9.71428571 8 9.71428571 8 13 C7.34 13 6.68 13 6 13 C2 6.25 2 6.25 2 4 C1.01 3.67 0.02 3.34 -1 3 C-0.67 2.01 -0.34 1.02 0 0 Z " fill="#03F163" transform="translate(626,180)"/>
<path d="M0 0 C2.912575 0.08566397 4.56798024 0.57910955 6.66796875 2.625 C8.16091772 4.38391375 9.60436262 6.16313019 11 8 C8.23156893 6.68315779 5.7422712 5.22149755 3.25 3.4375 C2.63640625 3.00308594 2.0228125 2.56867188 1.390625 2.12109375 C0.93171875 1.75113281 0.4728125 1.38117188 0 1 C0 0.67 0 0.34 0 0 Z " fill="#02F06D" transform="translate(465,506)"/>
<path d="M0 0 C7.1142355 5.56766257 7.1142355 5.56766257 8 9 C7.125 11.25 7.125 11.25 6 13 C5.566875 11.9275 5.13375 10.855 4.6875 9.75 C3.44552705 6.82249233 1.95643046 4.51541059 0 2 C0 1.34 0 0.68 0 0 Z " fill="#160D08" transform="translate(536,348)"/>
<path d="M0 0 C0.5775 0.226875 1.155 0.45375 1.75 0.6875 C-0.47355226 3.2445851 -2.00018193 3.92920912 -5.25 4.6875 C-5.58 5.3475 -5.91 6.0075 -6.25 6.6875 C-6.91 6.6875 -7.57 6.6875 -8.25 6.6875 C-6.65594781 2.8352072 -4.57967475 -0.63606594 0 0 Z " fill="#02E95E" transform="translate(194.25,771.3125)"/>
<path d="M0 0 C0.33 0 0.66 0 1 0 C1.2493357 1.60115576 1.47378648 3.20620159 1.6875 4.8125 C1.87892578 6.15248047 1.87892578 6.15248047 2.07421875 7.51953125 C2 10 2 10 0.51953125 11.82421875 C-0.23263672 12.40623047 -0.23263672 12.40623047 -1 13 C-1.07654536 8.48382401 -1.10228696 4.40914783 0 0 Z " fill="#02E562" transform="translate(521,308)"/>
<path d="M0 0 C2 1 2 1 2.6328125 2.84765625 C2.79523438 3.57855469 2.95765625 4.30945313 3.125 5.0625 C3.29257812 5.79597656 3.46015625 6.52945313 3.6328125 7.28515625 C3.75398438 7.85105469 3.87515625 8.41695312 4 9 C3.01 9.495 3.01 9.495 2 10 C2 9.01 2 8.02 2 7 C1.34 7 0.68 7 0 7 C-0.93423645 3.98968256 -1.04449911 3.13349732 0 0 Z " fill="#01ED5F" transform="translate(329,598)"/>
<path d="M0 0 C-6.4 4.06153846 -6.4 4.06153846 -9.4375 3.75 C-9.953125 3.5025 -10.46875 3.255 -11 3 C-10 1 -10 1 -8.22265625 0.33203125 C-7.15337891 0.07486328 -7.15337891 0.07486328 -6.0625 -0.1875 C-5.35222656 -0.36667969 -4.64195312 -0.54585938 -3.91015625 -0.73046875 C-2 -1 -2 -1 0 0 Z " fill="#04E66B" transform="translate(466,357)"/>
<path d="M0 0 C0.66 0 1.32 0 2 0 C2.33 2.31 2.66 4.62 3 7 C1.68 7.99 0.36 8.98 -1 10 C-0.67 6.7 -0.34 3.4 0 0 Z " fill="#12290F" transform="translate(728,783)"/>
<path d="M0 0 C2.4294516 3.6441774 2.16179575 5.71241272 2 10 C1.01 9.67 0.02 9.34 -1 9 C-0.67 6.03 -0.34 3.06 0 0 Z " fill="#03E359" transform="translate(501,315)"/>
<path d="M0 0 C0.99 0.495 0.99 0.495 2 1 C2 2.32 2 3.64 2 5 C4.64 5 7.28 5 10 5 C10 5.33 10 5.66 10 6 C8.52168779 6.19412181 7.04230684 6.38012131 5.5625 6.5625 C4.73878906 6.66691406 3.91507813 6.77132812 3.06640625 6.87890625 C2.38449219 6.91886719 1.70257813 6.95882812 1 7 C0 6 0 6 -0.0625 2.9375 C-0.041875 1.968125 -0.02125 0.99875 0 0 Z " fill="#0E421B" transform="translate(201,780)"/>
<path d="M0 0 C0.33 0 0.66 0 1 0 C1.33 2.64 1.66 5.28 2 8 C1.01 8 0.02 8 -1 8 C-1.33 6.02 -1.66 4.04 -2 2 C-1.34 2 -0.68 2 0 2 C0 1.34 0 0.68 0 0 Z " fill="#131C0F" transform="translate(463,791)"/>
<path d="M0 0 C0 0.99 0 1.98 0 3 C-2.31 3.66 -4.62 4.32 -7 5 C-7 4.01 -7 3.02 -7 2 C-2.25 0 -2.25 0 0 0 Z " fill="#01EB5F" transform="translate(529,364)"/>
<path d="M0 0 C0.66 0.33 1.32 0.66 2 1 C1.67 1.763125 1.34 2.52625 1 3.3125 C-0.17436686 5.99069135 -0.17436686 5.99069135 0 9 C-1.32 7.68 -2.64 6.36 -4 5 C-2.68 3.35 -1.36 1.7 0 0 Z " fill="#04E967" transform="translate(544,303)"/>
<path d="M0 0 C0 1.65 0 3.3 0 5 C-0.66 4.34 -1.32 3.68 -2 3 C-2.99 3 -3.98 3 -5 3 C-5.33 3.99 -5.66 4.98 -6 6 C-6 4.35 -6 2.7 -6 1 C-3 0 -3 0 0 0 Z " fill="#150708" transform="translate(230,620)"/>
<path d="M0 0 C3.4375 0.8125 3.4375 0.8125 7 2 C7.33 2.99 7.66 3.98 8 5 C2.25 3.125 2.25 3.125 0 2 C0 1.34 0 0.68 0 0 Z " fill="#02ED63" transform="translate(680,434)"/>
<path d="M0 0 C2.475 0.99 2.475 0.99 5 2 C5 3.98 5 5.96 5 8 C2.74754119 5.31158141 1.11786042 3.35358125 0 0 Z " fill="#01E95D" transform="translate(439,375)"/>
<path d="M0 0 C0.33 0.99 0.66 1.98 1 3 C2.65 3.33 4.3 3.66 6 4 C4.375 4.6875 4.375 4.6875 2 5 C-1.25 3.5625 -1.25 3.5625 -4 2 C-2.68 1.34 -1.36 0.68 0 0 Z " fill="#160A09" transform="translate(561,353)"/>
<path d="M0 0 C0.99 0.495 0.99 0.495 2 1 C2.6328125 3.06640625 2.6328125 3.06640625 3.125 5.5625 C3.29257812 6.38878906 3.46015625 7.21507812 3.6328125 8.06640625 C3.75398437 8.70449219 3.87515625 9.34257813 4 10 C3.34 8.68 2.68 7.36 2 6 C1.34 6 0.68 6 0 6 C0 4.02 0 2.04 0 0 Z " fill="#170E07" transform="translate(561,714)"/>
<path d="M0 0 C0.33 0 0.66 0 1 0 C2.125 6.625 2.125 6.625 1 10 C0.34 10 -0.32 10 -1 10 C-0.67 6.7 -0.34 3.4 0 0 Z " fill="#01F261" transform="translate(779,653)"/>
<path d="M0 0 C1.485 0.99 1.485 0.99 3 2 C2.34 3.98 1.68 5.96 1 8 C0.34 8 -0.32 8 -1 8 C-0.67 5.36 -0.34 2.72 0 0 Z " fill="#02E459" transform="translate(205,601)"/>
<path d="M0 0 C2.50298434 2.93828597 3.46930939 5.17902761 4 9 C3.01 9 2.02 9 1 9 C0.67 6.03 0.34 3.06 0 0 Z " fill="#02ED65" transform="translate(784,523)"/>
<path d="M0 0 C1.9375 0.3125 1.9375 0.3125 4 1 C4.33 1.99 4.66 2.98 5 4 C2.03 3.505 2.03 3.505 -1 3 C-0.67 2.01 -0.34 1.02 0 0 Z " fill="#14220D" transform="translate(511,380)"/>
</svg>
